<svg width="174" height="34" viewBox="0 0 174 34" fill="none" xmlns="http://www.w3.org/2000/svg">
<path d="M16.625 8.5H4.375C3.4085 8.5 2.625 9.2835 2.625 10.25V22.5C2.625 23.4665 3.4085 24.25 4.375 24.25H16.625C17.5915 24.25 18.375 23.4665 18.375 22.5V10.25C18.375 9.2835 17.5915 8.5 16.625 8.5Z" stroke="#22222F" stroke-width="2" stroke-linecap="round" stroke-linejoin="round"/>
<path d="M14 6.75V10.25" stroke="#22222F" stroke-width="2" stroke-linecap="round" stroke-linejoin="round"/>
<path d="M7 6.75V10.25" stroke="#22222F" stroke-width="2" stroke-linecap="round" stroke-linejoin="round"/>
<path d="M2.625 13.75H18.375" stroke="#22222F" stroke-width="2" stroke-linecap="round" stroke-linejoin="round"/>
<path d="M48.2791 7.56803C48.6311 7.56803 48.9191 7.68803 49.1431 7.92803C49.3671 8.15203 49.4791 8.44803 49.4791 8.81603V23.552C49.4791 23.92 49.3751 24.208 49.1671 24.416C48.9751 24.624 48.7031 24.728 48.3511 24.728C48.0151 24.728 47.7511 24.624 47.5591 24.416C47.3671 24.208 47.2711 23.92 47.2711 23.552V12.392L42.5671 21.344C42.2631 21.904 41.8711 22.184 41.3911 22.184C40.9111 22.184 40.5191 21.904 40.2151 21.344L35.4871 12.488V23.552C35.4871 23.92 35.3911 24.208 35.1991 24.416C35.0071 24.624 34.7351 24.728 34.3831 24.728C34.0471 24.728 33.7751 24.624 33.5671 24.416C33.3751 24.192 33.2791 23.904 33.2791 23.552V8.81603C33.2791 8.44803 33.3911 8.15203 33.6151 7.92803C33.8391 7.68803 34.1271 7.56803 34.4791 7.56803C34.9751 7.56803 35.3751 7.85603 35.6791 8.43203L41.4151 19.4L47.1031 8.43203C47.4071 7.85603 47.7991 7.56803 48.2791 7.56803ZM54.6588 24.728C54.2908 24.728 53.9948 24.616 53.7708 24.392C53.5468 24.168 53.4348 23.864 53.4348 23.48V8.81603C53.4348 8.44803 53.5468 8.15203 53.7708 7.92803C53.9948 7.68803 54.2908 7.56803 54.6588 7.56803C55.0428 7.56803 55.3468 7.68003 55.5708 7.90403C55.7948 8.12803 55.9068 8.43203 55.9068 8.81603V23.48C55.9068 23.864 55.7948 24.168 55.5708 24.392C55.3628 24.616 55.0588 24.728 54.6588 24.728ZM71.7534 24.8C70.5374 24.8 69.3774 24.632 68.2734 24.296C67.1854 23.96 66.3134 23.496 65.6574 22.904C65.3534 22.648 65.2014 22.32 65.2014 21.92C65.2014 21.632 65.2814 21.392 65.4414 21.2C65.6014 20.992 65.7934 20.888 66.0174 20.888C66.2414 20.888 66.5134 20.992 66.8334 21.2C68.2574 22.256 69.8814 22.784 71.7054 22.784C72.9854 22.784 73.9694 22.544 74.6574 22.064C75.3454 21.584 75.6894 20.896 75.6894 20C75.6894 19.296 75.3694 18.768 74.7294 18.416C74.0894 18.064 73.0654 17.728 71.6574 17.408C70.3134 17.12 69.2094 16.792 68.3454 16.424C67.4814 16.056 66.8014 15.56 66.3054 14.936C65.8254 14.296 65.5854 13.488 65.5854 12.512C65.5854 11.536 65.8494 10.672 66.3774 9.92003C66.9214 9.15203 67.6734 8.56003 68.6334 8.14403C69.5934 7.71203 70.6894 7.49603 71.9214 7.49603C73.0574 7.49603 74.1054 7.65603 75.0654 7.97603C76.0254 8.29603 76.8414 8.76803 77.5134 9.39203C77.8334 9.66403 77.9934 9.99203 77.9934 10.376C77.9934 10.648 77.9054 10.888 77.7294 11.096C77.5694 11.304 77.3774 11.408 77.1534 11.408C76.9454 11.408 76.6814 11.304 76.3614 11.096C75.6254 10.536 74.9294 10.136 74.2734 9.89603C73.6334 9.64003 72.8574 9.51203 71.9454 9.51203C70.7134 9.51203 69.7534 9.76803 69.0654 10.28C68.3774 10.776 68.0334 11.472 68.0334 12.368C68.0334 13.136 68.3374 13.72 68.9454 14.12C69.5534 14.504 70.5294 14.856 71.8734 15.176C73.2814 15.496 74.4174 15.832 75.2814 16.184C76.1614 16.52 76.8574 16.992 77.3694 17.6C77.8974 18.192 78.1614 18.96 78.1614 19.904C78.1614 20.864 77.8894 21.72 77.3454 22.472C76.8174 23.208 76.0654 23.784 75.0894 24.2C74.1294 24.6 73.0174 24.8 71.7534 24.8ZM85.9362 24.776C84.8002 24.776 83.8002 24.528 82.9362 24.032C82.0882 23.536 81.4242 22.832 80.9442 21.92C80.4802 21.008 80.2482 19.952 80.2482 18.752C80.2482 17.536 80.4882 16.464 80.9682 15.536C81.4642 14.608 82.1522 13.888 83.0322 13.376C83.9122 12.864 84.9202 12.608 86.0562 12.608C86.6642 12.608 87.2722 12.696 87.8802 12.872C88.5042 13.048 89.0562 13.288 89.5362 13.592C90.0482 13.944 90.3042 14.352 90.3042 14.816C90.3042 15.088 90.2322 15.32 90.0882 15.512C89.9442 15.688 89.7602 15.776 89.5362 15.776C89.3922 15.776 89.2482 15.744 89.1042 15.68C88.9602 15.6 88.7762 15.488 88.5522 15.344C88.1522 15.088 87.7762 14.896 87.4242 14.768C87.0882 14.624 86.6802 14.552 86.2002 14.552C85.1122 14.552 84.2642 14.92 83.6562 15.656C83.0642 16.392 82.7682 17.416 82.7682 18.728C82.7682 20.04 83.0642 21.056 83.6562 21.776C84.2482 22.48 85.0882 22.832 86.1762 22.832C86.6562 22.832 87.0802 22.76 87.4482 22.616C87.8162 22.472 88.1922 22.28 88.5762 22.04C88.7522 21.928 88.9282 21.832 89.1042 21.752C89.2802 21.672 89.4402 21.632 89.5842 21.632C89.8082 21.632 89.9922 21.728 90.1362 21.92C90.2802 22.096 90.3522 22.32 90.3522 22.592C90.3522 22.816 90.2882 23.024 90.1602 23.216C90.0482 23.392 89.8482 23.576 89.5602 23.768C89.0802 24.088 88.5202 24.336 87.8802 24.512C87.2402 24.688 86.5922 24.776 85.9362 24.776ZM98.8578 12.608C101.642 12.608 103.034 14.184 103.034 17.336V23.576C103.034 23.928 102.922 24.208 102.698 24.416C102.474 24.624 102.178 24.728 101.81 24.728C101.442 24.728 101.146 24.624 100.922 24.416C100.714 24.208 100.61 23.928 100.61 23.576V17.36C100.61 16.4 100.41 15.696 100.01 15.248C99.6258 14.8 99.0178 14.576 98.1858 14.576C97.2098 14.576 96.4258 14.88 95.8338 15.488C95.2418 16.096 94.9458 16.912 94.9458 17.936V23.576C94.9458 23.928 94.8338 24.208 94.6098 24.416C94.4018 24.624 94.1138 24.728 93.7458 24.728C93.3778 24.728 93.0818 24.624 92.8578 24.416C92.6338 24.208 92.5218 23.928 92.5218 23.576V8.72003C92.5218 8.36803 92.6338 8.08803 92.8578 7.88003C93.0978 7.67203 93.4018 7.56803 93.7698 7.56803C94.1218 7.56803 94.4018 7.67203 94.6098 7.88003C94.8338 8.07203 94.9458 8.33603 94.9458 8.67203V14.672C95.3458 14 95.8818 13.488 96.5538 13.136C97.2258 12.784 97.9938 12.608 98.8578 12.608ZM115.518 21.656C115.742 21.656 115.926 21.744 116.07 21.92C116.214 22.096 116.286 22.32 116.286 22.592C116.286 23.056 115.998 23.448 115.422 23.768C114.862 24.088 114.246 24.336 113.574 24.512C112.918 24.688 112.286 24.776 111.678 24.776C109.822 24.776 108.358 24.24 107.286 23.168C106.214 22.08 105.678 20.6 105.678 18.728C105.678 17.528 105.91 16.464 106.374 15.536C106.854 14.608 107.518 13.888 108.366 13.376C109.23 12.864 110.206 12.608 111.294 12.608C112.862 12.608 114.102 13.112 115.014 14.12C115.926 15.128 116.382 16.488 116.382 18.2C116.382 18.84 116.094 19.16 115.518 19.16H108.102C108.262 21.64 109.454 22.88 111.678 22.88C112.27 22.88 112.782 22.8 113.214 22.64C113.646 22.48 114.102 22.272 114.582 22.016C114.63 21.984 114.758 21.92 114.966 21.824C115.19 21.712 115.374 21.656 115.518 21.656ZM111.342 14.384C110.414 14.384 109.67 14.68 109.11 15.272C108.55 15.864 108.214 16.696 108.102 17.768H114.294C114.246 16.68 113.966 15.848 113.454 15.272C112.958 14.68 112.254 14.384 111.342 14.384ZM128.629 7.56803C128.997 7.56803 129.293 7.67203 129.517 7.88003C129.741 8.08803 129.853 8.36803 129.853 8.72003V23.552C129.853 23.92 129.741 24.208 129.517 24.416C129.309 24.624 129.021 24.728 128.653 24.728C128.285 24.728 127.989 24.624 127.765 24.416C127.557 24.208 127.453 23.92 127.453 23.552V22.592C127.101 23.296 126.589 23.84 125.917 24.224C125.245 24.592 124.469 24.776 123.589 24.776C122.581 24.776 121.677 24.52 120.877 24.008C120.093 23.496 119.477 22.776 119.029 21.848C118.597 20.92 118.381 19.856 118.381 18.656C118.381 17.44 118.597 16.376 119.029 15.464C119.477 14.552 120.093 13.848 120.877 13.352C121.661 12.856 122.565 12.608 123.589 12.608C124.469 12.608 125.237 12.8 125.893 13.184C126.565 13.552 127.077 14.08 127.429 14.768V8.67203C127.429 8.33603 127.533 8.07203 127.741 7.88003C127.965 7.67203 128.261 7.56803 128.629 7.56803ZM124.165 22.856C125.205 22.856 126.013 22.496 126.589 21.776C127.165 21.056 127.453 20.032 127.453 18.704C127.453 17.376 127.165 16.352 126.589 15.632C126.029 14.912 125.221 14.552 124.165 14.552C123.109 14.552 122.285 14.912 121.693 15.632C121.117 16.336 120.829 17.344 120.829 18.656C120.829 19.968 121.125 21 121.717 21.752C122.309 22.488 123.125 22.856 124.165 22.856ZM142.305 12.656C142.673 12.656 142.961 12.76 143.169 12.968C143.393 13.176 143.505 13.464 143.505 13.832V23.6C143.505 23.936 143.393 24.208 143.169 24.416C142.945 24.624 142.649 24.728 142.281 24.728C141.945 24.728 141.673 24.632 141.465 24.44C141.257 24.232 141.153 23.96 141.153 23.624V22.712C140.785 23.384 140.273 23.896 139.617 24.248C138.977 24.6 138.257 24.776 137.457 24.776C134.609 24.776 133.185 23.208 133.185 20.072V13.832C133.185 13.464 133.289 13.176 133.497 12.968C133.721 12.76 134.025 12.656 134.409 12.656C134.777 12.656 135.065 12.76 135.273 12.968C135.497 13.176 135.609 13.464 135.609 13.832V20.048C135.609 20.992 135.801 21.688 136.185 22.136C136.569 22.584 137.161 22.808 137.961 22.808C138.905 22.808 139.657 22.504 140.217 21.896C140.793 21.288 141.081 20.48 141.081 19.472V13.832C141.081 13.48 141.193 13.2 141.417 12.992C141.641 12.768 141.937 12.656 142.305 12.656ZM148.121 24.728C147.769 24.728 147.473 24.632 147.233 24.44C147.009 24.248 146.897 23.96 146.897 23.576V8.74403C146.897 8.36003 147.009 8.07203 147.233 7.88003C147.473 7.67203 147.769 7.56803 148.121 7.56803C148.473 7.56803 148.761 7.67203 148.985 7.88003C149.209 8.07203 149.321 8.36003 149.321 8.74403V23.576C149.321 23.96 149.209 24.248 148.985 24.44C148.761 24.632 148.473 24.728 148.121 24.728ZM161.877 21.656C162.101 21.656 162.285 21.744 162.429 21.92C162.573 22.096 162.645 22.32 162.645 22.592C162.645 23.056 162.357 23.448 161.781 23.768C161.221 24.088 160.605 24.336 159.933 24.512C159.277 24.688 158.645 24.776 158.037 24.776C156.181 24.776 154.717 24.24 153.645 23.168C152.573 22.08 152.037 20.6 152.037 18.728C152.037 17.528 152.269 16.464 152.733 15.536C153.213 14.608 153.877 13.888 154.725 13.376C155.589 12.864 156.565 12.608 157.653 12.608C159.221 12.608 160.461 13.112 161.373 14.12C162.285 15.128 162.741 16.488 162.741 18.2C162.741 18.84 162.453 19.16 161.877 19.16H154.461C154.621 21.64 155.813 22.88 158.037 22.88C158.629 22.88 159.141 22.8 159.573 22.64C160.005 22.48 160.461 22.272 160.941 22.016C160.989 21.984 161.117 21.92 161.325 21.824C161.549 21.712 161.733 21.656 161.877 21.656ZM157.701 14.384C156.773 14.384 156.029 14.68 155.469 15.272C154.909 15.864 154.573 16.696 154.461 17.768H160.653C160.605 16.68 160.325 15.848 159.813 15.272C159.317 14.68 158.613 14.384 157.701 14.384ZM171.556 12.656C172.324 12.608 172.708 12.936 172.708 13.64C172.708 13.992 172.62 14.256 172.444 14.432C172.268 14.608 171.964 14.712 171.532 14.744L170.812 14.816C169.804 14.912 169.052 15.264 168.556 15.872C168.076 16.48 167.836 17.216 167.836 18.08V23.576C167.836 23.96 167.724 24.248 167.5 24.44C167.276 24.632 166.988 24.728 166.636 24.728C166.284 24.728 165.988 24.632 165.748 24.44C165.524 24.248 165.412 23.96 165.412 23.576V13.808C165.412 13.44 165.524 13.16 165.748 12.968C165.988 12.76 166.284 12.656 166.636 12.656C166.956 12.656 167.22 12.76 167.428 12.968C167.652 13.16 167.764 13.432 167.764 13.784V14.936C168.084 14.232 168.548 13.696 169.156 13.328C169.764 12.96 170.452 12.744 171.22 12.68L171.556 12.656Z" fill="#22222F"/>
</svg>
