<svg width="268" height="300" viewBox="0 0 268 300" fill="none" xmlns="http://www.w3.org/2000/svg">
<path fill-rule="evenodd" clip-rule="evenodd" d="M117.687 222.908C118.487 224.593 120.319 233.459 121.887 242.145C121.887 243.833 121.876 245.545 121.838 247.278C121.029 248.709 92.1148 291.74 20.9518 260.978C16.9833 259.248 13.52 256.537 10.8878 253.1C15.9634 254.455 21.1584 255.314 26.3998 255.665C44.5788 256.565 64.3408 258.071 81.9548 252.665C86.5678 251.253 92.7238 247.248 94.7328 242.712C95.2409 241.514 95.4841 240.221 95.4458 238.92C99.1338 237.182 100.862 236.279 117.687 222.908ZM29.0528 152.074C29.2052 153.024 29.5367 153.937 30.0298 154.764C30.4844 155.392 31.1207 155.865 31.8528 156.12C31.6608 156.52 31.4748 156.986 31.3188 157.405C28.5908 159.905 25.6318 166.573 24.3808 169.11C17.7478 182.556 12.0468 206.294 28.5748 211.01C33.9458 212.544 37.1448 211.47 34.1138 212.228C30.9898 213.909 26.1338 216.281 25.6598 216.969C25.6368 217.002 25.8008 217.077 25.8008 217.077C25.2648 219.3 25.1918 224.467 25.4858 224.74C25.6867 224.947 25.8697 225.17 26.0328 225.408C25.7953 226.654 25.6565 227.917 25.6178 229.185C18.7428 228.806 7.80082 230.663 3.43182 236.011C-2.38318 209.803 6.68982 173.258 11.4318 166.772C16.2938 160.129 22.6998 156.8 29.0528 152.074ZM32.3898 156.355C32.3018 156.497 32.2138 156.639 32.1258 156.789C32.2258 156.734 32.1688 156.776 32.4258 156.374L32.3898 156.355Z" fill="#212121"/>
<path fill-rule="evenodd" clip-rule="evenodd" d="M77.5059 98.3709C76.4809 102.042 73.3719 103.591 70.2769 105.457C69.4359 105.964 67.1289 106.989 67.1289 106.989C67.1289 106.989 65.9359 110.001 65.4859 111.322C64.0209 115.622 62.6949 121.129 62.9259 125.681C63.3009 133.04 68.1839 135.329 70.4739 139.074C73.3639 143.797 73.5639 149.474 69.4309 153.419C64.9809 157.663 57.8159 155.709 52.4769 157.457C51.1499 157.891 50.4199 159.191 49.4169 160.046C46.8959 162.198 42.5059 164.574 39.0879 163.887C35.7969 163.226 35.4229 159.665 33.8179 157.409C32.3239 155.309 28.9829 157.24 28.7989 149.391C28.613 145.533 29.3918 141.69 31.0649 138.209C32.3484 136.182 33.7631 134.242 35.2999 132.4C36.1079 131.173 34.3929 133.518 35.2999 132.4C42.8099 123.142 39.8749 117.648 40.9269 110.86C41.2339 108.879 42.7809 106.823 43.5829 104.993C44.1749 103.644 44.1509 102.115 44.8169 100.764C47.6449 95.0209 52.8259 91.2369 58.5769 88.7349C71.1439 83.2659 81.3439 92.2739 82.3839 94.0969C83.5497 95.9967 84.3121 98.1159 84.6239 100.323C84.8554 101.225 84.7884 102.177 84.4329 103.038C84.0539 103.578 82.7269 102.796 82.3269 102.605C80.339 101.698 78.6627 100.224 77.5079 98.3689" fill="#212121"/>
<path fill-rule="evenodd" clip-rule="evenodd" d="M79.8242 91.012C81.6325 92.1748 83.0188 93.8886 83.7782 95.9C84.5192 97.584 85.7172 101.668 84.7862 103.167C84.6543 103.365 84.4559 103.51 84.2267 103.575C83.9976 103.64 83.7527 103.621 83.5362 103.522C82.5847 103.166 81.6739 102.709 80.8192 102.16C79.5505 101.36 78.4557 100.312 77.6002 99.08C76.6612 101.704 74.6752 103.187 72.3372 104.648C70.7851 105.665 69.1496 106.548 67.4482 107.288C58.2892 131.041 67.0582 132.788 70.7922 138.406C73.7562 142.853 74.3052 148.581 70.9762 152.742C68.5692 155.752 65.4022 156.756 61.4932 157.061C59.6272 157.256 54.2432 157.342 52.4522 158.238C51.2712 158.847 50.9792 159.751 49.4392 160.969C46.5252 163.262 41.6742 165.7 38.1872 164.399C35.0552 163.227 34.6492 159.799 33.2492 157.887C32.4242 156.654 30.2372 156.978 29.0982 154.622C27.4692 151.534 27.9982 145.177 28.8982 141.805C29.8982 138.197 30.9202 136.84 33.3162 133.694C35.1912 131.247 34.6852 131.877 34.9032 131.609C35.2812 131.164 34.8632 131.858 35.9502 130.309C40.9652 123.131 39.7082 118.963 39.9692 113.309C40.1462 109.494 40.6802 108.977 42.3922 105.799C43.9692 102.859 43.0462 102.626 44.4762 99.908C46.1777 96.7849 48.5677 94.0902 51.4652 92.028C54.2482 90.0151 57.3219 88.4383 60.5802 87.352C63.8481 86.3903 67.298 86.2207 70.6444 86.8571C73.9908 87.4936 77.1376 88.9178 79.8242 91.012V91.012ZM59.1742 89.14C56.1436 90.4008 53.3221 92.1147 50.8062 94.223C48.4209 96.2282 46.5144 98.7415 45.2262 101.579C44.9202 102.469 44.8352 103.3 44.5752 104.273C44.2167 105.397 43.7184 106.473 43.0922 107.473C41.9858 109.129 41.4055 111.081 41.4272 113.073C41.2402 116.93 41.7552 120.244 40.6552 124.113C38.9832 129.772 35.6322 132.913 32.8802 136.789C32.1586 137.71 31.5739 138.731 31.1442 139.82C29.3442 144.18 29.1762 149.92 29.9912 152.82C31.0762 156.557 33.0542 154.464 34.8822 157.703C35.7822 159.235 36.2912 161.145 37.5492 162.32C39.7572 164.345 44.1612 162.753 46.6852 161.12C50.1742 159.027 50.1622 157.46 52.3202 156.745C53.2842 156.447 54.2733 156.237 55.2752 156.118C59.4752 155.671 63.1192 155.796 65.6872 154.844C67.7745 154.134 69.5396 152.701 70.6647 150.805C71.7898 148.909 72.201 146.673 71.8242 144.501C70.2242 133.601 58.3892 136.017 63.7402 115.519C64.5595 112.5 65.6024 109.546 66.8602 106.682C69.2067 105.65 71.4569 104.412 73.5842 102.982C75.1663 101.987 76.3856 100.509 77.0612 98.767C77.2612 98.187 77.1612 98.314 77.3272 98.221L77.3562 98.108C77.5052 98.148 77.4502 98.153 77.5892 98.076C77.6662 98.214 77.6232 98.176 77.7622 98.215C78.9997 100.145 80.8023 101.647 82.9242 102.515C83.1602 102.628 83.8512 102.949 84.1112 102.848C84.3112 102.748 84.4022 102.022 84.3572 101.358C84.1615 98.9626 83.4106 96.6458 82.1642 94.591C81.0443 93.0905 79.6289 91.8354 78.0052 90.903C75.2553 89.0788 72.0968 87.9632 68.8112 87.6556C65.5256 87.348 62.215 87.858 59.1742 89.14V89.14Z" fill="#212121"/>
<path fill-rule="evenodd" clip-rule="evenodd" d="M79.4872 128.668C82.2152 126.632 84.0992 124.082 84.5142 117.337C84.5492 116.737 84.4722 116.915 84.8432 116.553C85.1892 116.908 85.1432 116.827 85.1432 116.953C85.2882 122.893 84.1972 127.197 79.4662 130.378C78.437 131.077 77.2826 131.572 76.0662 131.834L76.2092 133.919L76.2362 134.333C79.0362 135.299 79.8632 135.484 82.1482 137.366C83.6817 138.524 84.9092 140.04 85.7242 141.78C85.9146 142.263 85.9472 142.795 85.8171 143.298C85.687 143.801 85.4011 144.25 85.0002 144.58C84.0161 145.677 82.7125 146.437 81.2732 146.754C80.0373 147.009 78.7644 147.029 77.5212 146.813C75.754 146.53 74.0689 145.869 72.5812 144.874L72.5342 144.456C73.0702 144.398 72.8492 144.37 73.2252 144.58C74.1877 145.069 75.2115 145.427 76.2692 145.644C78.8402 146.209 81.6242 145.997 83.5452 144.144C83.8654 143.833 84.1523 143.49 84.4012 143.12C85.1742 141.666 80.5472 137.542 78.4332 136.703C74.6012 135.193 74.8552 135.893 74.7472 134.213C74.5472 131.056 74.5302 131.289 74.6382 131.001C74.6821 130.908 74.745 130.826 74.8229 130.759C74.9008 130.693 74.9919 130.643 75.0902 130.614C76.683 130.303 78.1856 129.638 79.4872 128.668V128.668Z" fill="#212121"/>
<path fill-rule="evenodd" clip-rule="evenodd" d="M84.8 118.111C85.2183 119.152 85.7248 120.156 86.314 121.111C87.0993 122.282 87.9803 123.386 88.948 124.411C92.118 127.556 93.313 128.055 94.779 132.235C95.221 133.495 96.138 135.035 95.552 136.403C95.303 136.982 93.452 136.278 93.052 136.203C85.552 134.867 83 134.549 77.479 135.455C77.209 135.501 77.562 135.568 75.531 134.871C75.453 133.671 75.551 133.94 75.298 131.309C75.998 131.083 78.052 130.418 78.341 130.251C83.193 127.44 84.543 123.669 84.8 118.111ZM76.561 130.911L75.293 131.304Z" fill="#212121"/>
<path fill-rule="evenodd" clip-rule="evenodd" d="M94.27 129.35C95.0346 130.905 95.6964 132.508 96.251 134.15C96.4447 134.746 96.4994 135.379 96.411 135.999C96.036 138.142 94.346 137.166 92.417 136.83C87.684 136.016 84.508 135.542 81.462 135.722C76.009 136.082 78.399 136.643 75.617 135.669C75.178 135.515 74.968 135.477 74.824 135.037C74.783 134.761 74.802 134.695 74.752 133.456C74.644 130.985 74.261 130.894 75.443 130.529C75.5961 130.421 75.7789 130.364 75.966 130.365C76.307 130.258 77.666 129.828 77.994 129.689C79.2125 129.034 80.322 128.195 81.283 127.2C83.458 124.886 84.183 121.694 84.474 118.5C84.499 118.209 84.46 117.719 84.901 117.827C84.941 117.84 84.9776 117.861 85.0082 117.89C85.0388 117.919 85.0627 117.954 85.078 117.993V117.993C88.078 124.593 91.92 125.265 94.27 129.35ZM90.637 135.037C91.6382 135.168 92.6311 135.355 93.611 135.598C94.0541 135.744 94.5102 135.847 94.973 135.905C95.255 134.884 94.517 133.579 94.095 132.339C92.327 127.12 89.95 126.871 87.131 122.978C86.3374 121.984 85.675 120.892 85.16 119.729C84.941 119.249 85.146 119.277 84.854 121.329C84.338 124.863 83.293 127.21 80.479 129.549C79.3181 130.564 77.9323 131.288 76.436 131.661C76.3291 131.756 76.199 131.821 76.059 131.849C76.159 132.777 76.186 133.313 76.229 134.342C77.929 134.921 76.642 134.729 79.938 134.366C83.277 134.009 85.352 134.152 90.637 135.037ZM78.008 129.684L78.025 129.676L78.008 129.684Z" fill="#212121"/>
<path fill-rule="evenodd" clip-rule="evenodd" d="M70.9428 105.393C71.6034 105.391 72.2592 105.504 72.8808 105.728C73.8852 106.156 74.7774 106.811 75.4878 107.64C76.4315 108.996 76.9754 110.59 77.0578 112.24C77.2288 114.819 76.4048 117.309 74.1458 118.61C72.9874 119.26 71.6318 119.466 70.3328 119.188C63.9718 118.337 62.2548 109.823 67.3608 106.339C68.4109 105.622 69.6756 105.288 70.9428 105.393V105.393ZM70.1308 106.026C68.9536 106.188 67.8852 106.8 67.1508 107.734C64.4378 110.969 65.6298 115.917 69.1508 117.366C70.1162 117.72 71.1476 117.856 72.1718 117.766C74.3218 117.481 76.3428 115.066 75.4948 110.638C75.3607 109.416 74.7828 108.287 73.8708 107.463C73.3908 106.965 72.8079 106.578 72.1627 106.329C71.5176 106.08 70.8258 105.975 70.1358 106.021L70.1308 106.026Z" fill="#212121"/>
<path fill-rule="evenodd" clip-rule="evenodd" d="M83.618 104.335C84.593 104.321 85.5383 104.67 86.27 105.315C87.4404 106.29 88.2066 107.665 88.42 109.173C88.7077 110.47 88.7328 111.811 88.494 113.118C87.994 115.572 86.512 116.936 84.994 117.274C83.93 117.436 82.842 117.3 81.851 116.88C77.508 114.942 77.058 107.506 81.238 104.904C81.9519 104.469 82.7846 104.27 83.618 104.335V104.335ZM83.018 104.965C82.1904 105.109 81.4508 105.568 80.955 106.246C78.516 109.276 79.555 114.966 83.137 115.752C83.6888 115.873 84.2593 115.883 84.815 115.781C86.559 115.188 87.173 113.237 87.244 111.395C87.3359 109.859 87.0409 108.324 86.386 106.931C85.9857 106.315 85.4628 105.787 84.85 105.381C84.2858 105.085 83.6547 104.94 83.018 104.961V104.965Z" fill="#212121"/>
<path d="M72.5791 114.7C72.3991 114.7 72.2252 114.634 72.0894 114.516C71.9537 114.398 71.8652 114.234 71.8401 114.056C71.7604 113.473 71.7403 112.884 71.7801 112.297C71.7867 112.199 71.8125 112.103 71.856 112.016C71.8995 111.928 71.96 111.849 72.0338 111.785C72.1077 111.72 72.1936 111.671 72.2865 111.639C72.3795 111.608 72.4777 111.595 72.5756 111.602C72.6735 111.608 72.7692 111.634 72.8571 111.677C72.9451 111.721 73.0236 111.781 73.0881 111.855C73.1527 111.929 73.2021 112.015 73.2335 112.108C73.2649 112.201 73.2777 112.299 73.2711 112.397C73.2391 112.882 73.2555 113.369 73.3201 113.851C73.3347 113.957 73.3264 114.065 73.2959 114.167C73.2653 114.269 73.2131 114.364 73.1429 114.444C73.0727 114.525 72.986 114.589 72.8888 114.633C72.7915 114.677 72.6859 114.7 72.5791 114.7V114.7Z" fill="#212121"/>
<path d="M83.5791 112.925C83.4252 112.926 83.275 112.878 83.1501 112.788C83.0251 112.698 82.932 112.571 82.8841 112.425C82.798 112.026 82.7687 111.616 82.7971 111.209C82.7856 111.011 82.8531 110.817 82.9849 110.669C83.1166 110.521 83.3018 110.431 83.4996 110.419C83.6975 110.408 83.8918 110.475 84.0399 110.607C84.1879 110.739 84.2776 110.924 84.2891 111.122C84.2981 111.282 84.2781 111.868 84.3021 111.952C84.3359 112.065 84.3429 112.184 84.3225 112.3C84.3021 112.416 84.255 112.525 84.1847 112.62C84.1145 112.714 84.0232 112.791 83.9181 112.844C83.8129 112.897 83.6968 112.925 83.5791 112.925V112.925Z" fill="#212121"/>
<path fill-rule="evenodd" clip-rule="evenodd" d="M77.9362 109.381C78.2606 109.4 78.5678 109.533 78.8042 109.756L78.6742 110.335C78.5002 110.445 78.3742 110.683 78.1922 110.779C78.0127 110.862 77.8279 110.934 77.6392 110.994C77.4182 111.058 77.3212 111.125 76.3242 110.944C76.3564 110.542 76.5154 110.161 76.7782 109.856C77.1085 109.586 77.5116 109.421 77.9362 109.381Z" fill="#212121"/>
<path fill-rule="evenodd" clip-rule="evenodd" d="M82.0362 116.433C82.8202 118 80.6982 120.219 78.2012 119.765C78.1012 119.745 78.1662 119.777 77.8232 119.465C78.2232 119.022 77.9682 119.238 78.3612 119.035C78.6142 118.907 79.7612 118.195 79.9962 118.03C80.3424 117.805 80.6251 117.495 80.8172 117.13V117.13C80.8586 117.046 80.8921 116.959 80.9172 116.869C80.9563 116.795 80.966 116.709 80.9442 116.628C80.8842 116.418 80.7512 116.214 80.6782 115.995L80.7492 115.579L81.1642 115.655C81.4792 115.879 81.7842 115.948 82.0362 116.433Z" fill="#212121"/>
<path fill-rule="evenodd" clip-rule="evenodd" d="M78.3669 122C79.3409 122.04 79.2099 122.051 79.6079 122.271C79.3719 122.687 79.5009 122.596 78.7149 123.163C78.1328 123.503 77.4773 123.698 76.8039 123.732C76.2187 123.79 75.632 123.637 75.1499 123.3C75.0159 123.217 75.0759 123.279 74.8179 122.874C75.2359 122.608 75.1369 122.655 75.2859 122.624C75.9439 122.479 75.5089 122.516 76.6309 122.291C77.2 122.144 77.7809 122.047 78.3669 122Z" fill="#212121"/>
<path fill-rule="evenodd" clip-rule="evenodd" d="M96.8582 151.121C96.5582 148.457 96.0342 133.458 95.6982 128.651C96.4052 128.066 121.754 130.325 133.758 131.611C134.714 131.755 135.69 131.654 136.596 131.319C137.502 130.983 138.309 130.423 138.94 129.692C139.619 130.769 139.917 172.192 139.114 176.578C138.525 177.47 137.711 178.19 136.755 178.667C135.799 179.144 134.734 179.36 133.667 179.294C122.691 178.786 100.667 177.224 99.2432 176.994" fill="#212121"/>
<path fill-rule="evenodd" clip-rule="evenodd" d="M117.47 129.335C138.814 131.179 131.89 130.835 134.37 130.921C135.498 130.984 136.614 130.656 137.529 129.994C138.421 129.319 138.34 128.969 138.966 128.952C139.137 128.961 139.3 129.026 139.429 129.138C139.559 129.249 139.649 129.4 139.684 129.567C140.425 132.298 140.578 169.439 139.884 176.055C139.8 176.765 139.814 177.125 138.749 178.102C137.884 178.902 136.831 179.471 135.687 179.754C134.417 180.073 133.731 179.963 129.676 179.713C120.804 179.164 100.476 177.537 99.1989 177.292L98.9489 176.955L99.2869 176.705C103.239 177.13 127.462 178.375 130.94 178.528C133.708 178.653 135.04 178.962 137.04 177.718C137.589 177.363 138.067 176.909 138.45 176.38C138.999 176.38 139.003 139.691 138.396 131.18C137.085 132.118 135.472 132.536 133.871 132.353C131.897 132.171 102.553 129.112 96.2709 129.112C96.5709 134.491 96.8889 148.051 97.1489 150.956C97.1639 151.13 97.2029 151.034 96.8949 151.419C96.4949 151.099 96.5699 151.233 96.5309 150.862C96.4309 150.862 95.1599 128.611 95.1779 128.51C95.1988 128.432 95.2365 128.359 95.2883 128.297C95.3401 128.235 95.4048 128.185 95.4779 128.15C96.7699 127.542 115.993 129.208 117.47 129.335Z" fill="#212121"/>
<path fill-rule="evenodd" clip-rule="evenodd" d="M125.148 118.8C126.148 118.957 135.978 126.013 139.202 129.641C139.288 129.741 139.267 129.657 139.26 130.141C138.791 130.129 138.874 130.16 138.774 130.076C138.069 129.502 135.823 128.038 134.052 126.776C132.652 125.785 127.193 121.661 125.403 120.356C125.322 120.786 125.044 122.611 124.865 123.672L124.54 123.945L124.266 123.62C124.176 122.15 124.243 120.675 124.466 119.22V119.22C124.519 119.085 124.614 118.972 124.737 118.896C124.86 118.82 125.004 118.787 125.148 118.8ZM125.536 119.8L125.546 119.786V119.792L125.559 119.772L125.553 119.78L125.564 119.762L125.558 119.771L125.567 119.754L125.577 119.734L125.566 119.755L125.575 119.732C125.56 119.751 125.547 119.771 125.536 119.792V119.8Z" fill="#212121"/>
<path fill-rule="evenodd" clip-rule="evenodd" d="M129.346 128.526C127.493 127.126 121.974 122.742 121.492 122.42C121.206 123.662 120.521 127.188 120.501 127.291L120.168 127.556L119.904 127.223C119.928 126.329 120.066 121.768 120.521 121.012C120.621 120.855 120.778 120.742 120.959 120.698C121.139 120.654 121.33 120.681 121.492 120.774C125.085 123.2 128.491 125.894 131.679 128.833C132.216 129.341 133.787 130.843 134.254 131.422L134.247 131.844L133.825 131.831C133.18 131.27 130.319 129.261 129.346 128.526ZM121.671 121.726V121.717V121.726ZM121.684 121.695L121.672 121.724L121.684 121.701L121.692 121.683L121.684 121.695Z" fill="#212121"/>
<path fill-rule="evenodd" clip-rule="evenodd" d="M102.437 123.5C107.775 123.564 127.205 127.681 134.628 131.391C135.051 131.607 134.928 131.502 135.092 131.955C134.46 132.175 135.152 132.17 132.823 131.415C126.98 129.56 103.938 124.367 101.865 124.602C101.356 125.015 99.2292 127.691 98.6192 128.429C98.5142 128.555 98.6032 128.515 98.1192 128.58C98.0542 128.098 98.0392 128.192 98.1322 128.059C101.3 123.465 101.022 123.486 102.437 123.5ZM101.887 124.584H101.895H101.887ZM101.902 124.574L101.912 124.566L101.887 124.584L101.906 124.573L101.895 124.579L101.912 124.568L101.901 124.575L101.915 124.565L101.902 124.574Z" fill="#212121"/>
<path fill-rule="evenodd" clip-rule="evenodd" d="M135.192 135.885C136.254 136.394 135.857 135.262 135.373 148.005C135.138 154.395 134.837 163.386 134.473 171.273L134.173 171.573L133.885 171.259C133.958 162.314 133.895 156.293 134.056 147.969C134.211 140.169 134.409 136.919 134.409 136.591L134.655 136.078L135.189 135.885H135.192Z" fill="white"/>
<path fill-rule="evenodd" clip-rule="evenodd" d="M109.9 178C109.591 178.434 109.817 178.3 109.013 178.5C106.778 179.088 104.625 179.949 102.602 181.066C99.786 182.634 97.1096 184.441 94.6019 186.466C91.4549 188.996 86.5669 193.55 83.6569 196.344C82.2112 197.65 80.9228 199.121 79.8179 200.726C79.1339 201.81 79.6039 201.479 78.9569 201.75C78.7709 201.296 78.7829 201.387 78.8189 201.286C79.7499 198.786 82.1999 196.134 84.0579 194.211C87.5604 190.521 91.342 187.106 95.3689 183.996C96.9641 182.798 98.6461 181.721 100.401 180.772C103.184 179.27 106.206 178.263 109.333 177.795C109.608 177.742 109.51 177.731 109.9 178Z" fill="#212121"/>
<path fill-rule="evenodd" clip-rule="evenodd" d="M137.855 205.8C140.187 205.976 142.63 208.576 142.766 208.576C154.481 219.193 167.766 246.457 171.818 252.403C173.919 252.129 175.99 251.653 178 250.984C178.692 250.776 179.354 250.48 179.969 250.102C178.04 227.866 157.219 172.125 141.011 170.817C140.248 170.756 140.518 170.896 140.111 170.496C140.452 170.151 140.373 170.196 140.505 170.196C157.631 170.196 179.039 225.818 181.372 249.16C181.478 250.241 181.504 250.321 181.396 250.628C181.275 250.909 181.075 251.149 180.82 251.319C179.493 252.38 174.02 253.741 171.745 253.893C171.59 253.917 171.432 253.904 171.282 253.856C171.133 253.808 170.997 253.726 170.884 253.617C169.897 252.592 164.511 242.36 158.12 231.765C153.82 224.59 146.63 212.923 139.995 208.116C139.415 207.738 138.245 207.008 137.561 207.138C137.061 207.138 114.361 226.965 102.235 235.329C100.335 236.698 98.3095 237.882 96.1852 238.867C95.6182 239.092 95.8502 239.096 95.3462 238.89C95.5372 238.431 95.4732 238.512 95.6162 238.453C97.8128 237.446 99.8919 236.201 101.816 234.739C108.751 229.73 114.616 224.558 114.738 224.558C120.766 219.599 134.238 208.106 135.005 207.433C136.152 206.465 136.735 205.713 137.855 205.8Z" fill="#212121"/>
<path fill-rule="evenodd" clip-rule="evenodd" d="M149.2 216.8C148.226 223.247 145.588 232.927 143.806 239.171C141.166 248.325 135.737 264.947 135.297 265.971C135.235 266.09 135.142 266.19 135.029 266.26C134.915 266.331 134.784 266.369 134.65 266.371C134.55 266.371 126.097 266.528 125.81 266.509C125.674 266.49 125.546 266.433 125.441 266.345C125.335 266.256 125.258 266.14 125.216 266.009C124.808 264.352 119.253 227.362 117.634 223.762L117.78 223.362L118.18 223.508C120.335 227.883 125.73 260.132 126.537 265.03C127.937 265.002 133.409 264.899 134.102 264.888C137.279 255.582 145.696 229.846 148.102 219.188C148.772 216.249 148.43 216.831 148.963 216.453L149.2 216.8Z" fill="#212121"/>
<path fill-rule="evenodd" clip-rule="evenodd" d="M172.8 253.48C173.09 255.243 173.52 258.594 175.057 259.805C176.133 260.649 196.241 252.957 195.866 251.84C195.608 251.074 182.69 251.051 180.393 250.995" fill="#212121"/>
<path fill-rule="evenodd" clip-rule="evenodd" d="M173.108 253.513C173.451 255.23 173.896 257.624 174.973 258.972C175.338 259.372 175.301 259.304 175.411 259.304C178.795 258.858 193.823 252.739 194.276 252.172C194.109 252.172 194.503 252.172 192.439 252C189.172 251.737 183.299 251.461 180.497 251.3C180.335 251.283 180.441 251.354 180.088 250.99C180.471 250.625 180.342 250.712 180.509 250.69C181.914 250.69 194.671 250.126 196.219 251.169C196.332 251.247 196.426 251.351 196.492 251.472C196.558 251.592 196.595 251.727 196.6 251.865C196.605 252.002 196.577 252.139 196.52 252.264C196.462 252.389 196.376 252.499 196.268 252.585C194.288 254.485 178.601 260.419 175.592 260.419C175.286 260.462 174.975 260.396 174.714 260.232C173.091 258.932 172.743 255.589 172.498 253.522L172.747 253.179C173.148 253.471 173.086 253.4 173.108 253.513ZM175.368 259.353L175.397 259.371L175.382 259.36H175.389L175.368 259.353ZM175.368 259.353H175.374H175.367H175.368Z" fill="#212121"/>
<path d="M176.15 192.559C175.956 192.528 175.769 192.459 175.602 192.355C175.434 192.252 175.289 192.117 175.174 191.957C175.058 191.797 174.976 191.616 174.931 191.425C174.886 191.233 174.879 191.034 174.912 190.84C174.944 190.646 175.014 190.46 175.118 190.293C175.222 190.126 175.358 189.981 175.519 189.867C175.679 189.753 175.861 189.671 176.052 189.627C176.244 189.583 176.443 189.578 176.637 189.611C179.137 190.021 181.83 189.471 184.666 189.688C185.06 189.721 185.424 189.908 185.68 190.209C185.936 190.51 186.062 190.9 186.032 191.293C186.001 191.687 185.816 192.052 185.517 192.31C185.218 192.568 184.829 192.697 184.435 192.669C181.825 192.467 179.052 193.039 176.15 192.559Z" fill="#212121"/>
<path d="M225.35 193.268C225.154 193.255 224.963 193.203 224.787 193.116C224.611 193.029 224.454 192.908 224.325 192.761C224.196 192.613 224.097 192.441 224.034 192.255C223.971 192.069 223.946 191.873 223.959 191.677C223.97 191.481 224.02 191.288 224.106 191.111C224.193 190.935 224.313 190.777 224.461 190.647C224.61 190.518 224.782 190.419 224.969 190.357C225.156 190.295 225.353 190.271 225.549 190.286C228.349 190.478 231.869 190.795 234.476 190.337C234.865 190.273 235.263 190.365 235.585 190.592C235.906 190.82 236.124 191.166 236.192 191.554C236.26 191.942 236.172 192.341 235.948 192.665C235.723 192.989 235.379 193.21 234.992 193.282C232.053 193.8 228.356 193.477 225.35 193.268Z" fill="#212121"/>
<path fill-rule="evenodd" clip-rule="evenodd" d="M126.355 265.764C125.986 268.05 126.047 270.385 126.535 272.649C126.793 273.649 142.667 284.997 142.976 284.365C143.797 282.677 134.645 270.852 133.576 269.765C132.929 269.111 133.211 267.022 133.104 265.954" fill="#212121"/>
<path fill-rule="evenodd" clip-rule="evenodd" d="M126.654 265.79C126.377 268.013 126.507 270.267 127.036 272.444V272.451C131.821 276.266 136.807 279.82 141.974 283.1C140.763 280.766 139.383 278.525 137.843 276.394C133.123 269.431 133.27 270.35 132.972 269.605C132.752 268.725 132.693 267.813 132.798 266.912C132.846 265.731 132.703 266.112 133.074 265.66C133.445 265.973 133.396 265.86 133.427 266.213C133.416 267.189 133.505 268.164 133.691 269.123C133.873 269.604 133.613 268.923 136.86 272.942C138.42 274.891 143.472 281.395 143.76 283.892C143.837 284.792 143.377 285.162 142.847 285.132C141.109 284.908 128.839 275.893 126.542 273.521C126.004 272.986 126.02 272.889 125.865 272.037C125.592 269.94 125.656 267.813 126.055 265.737L126.379 265.461L126.654 265.79ZM127.054 272.515L127.048 272.492L127.054 272.515Z" fill="#212121"/>
<path fill-rule="evenodd" clip-rule="evenodd" d="M63.908 217.114C67.582 215.557 78.823 210.798 82.04 209.361C81.374 209.274 79.812 208.974 71.527 208.076C55.418 206.336 57.627 207.094 57.027 206.488C57.376 206.145 57.296 206.193 57.418 206.193C59.518 206.101 75.742 207.135 82.285 208.016C84.096 208.268 84.812 208.369 84.837 209.167C84.786 209.61 84.537 209.759 84.087 209.974C81.587 211.225 64.487 218.536 64.139 218.601C64.602 218.601 26.464 217.811 25.439 217.394C25.377 217.36 25.3232 217.313 25.2814 217.256C25.2396 217.2 25.2108 217.134 25.197 217.065L25.188 216.987C25.225 216.287 26.7 215.613 33.973 211.965L34.38 212.089C34.234 212.573 34.296 212.47 34.111 212.578C34.011 212.615 28.011 215.894 27.03 216.531C65.588 217.047 61.5 217.114 63.908 217.114Z" fill="#212121"/>
<path fill-rule="evenodd" clip-rule="evenodd" d="M63.614 224.324C63.7749 222.374 63.822 220.417 63.755 218.462C63.755 218.27 63.699 218.371 64.044 217.999C64.395 218.334 64.344 218.24 64.359 218.444C64.794 224.818 64.938 225.274 63.535 225.374C57.519 225.953 29.255 226.074 25.796 225.381C25.021 225.273 24.906 225.045 24.842 224.261C24.7869 222.092 24.9504 219.922 25.33 217.786C25.517 216.854 25.461 217.039 25.87 216.786C26.247 217.398 26.044 216.704 25.87 218.919C25.7382 220.705 25.7506 222.5 25.907 224.284C27.066 224.444 63.512 224.334 63.614 224.324ZM63.555 224.518L63.564 224.503L63.557 224.518L63.567 224.496L63.555 224.518ZM63.555 224.511L63.564 224.496L63.555 224.511ZM63.564 224.496V224.507V224.496ZM25.948 224.477L25.955 224.5L25.949 224.481L25.955 224.496L25.946 224.474L25.948 224.477Z" fill="#212121"/>
<path fill-rule="evenodd" clip-rule="evenodd" d="M26.1651 232.614C28.5341 232.614 21.0581 232.714 37.5321 232.714C37.5561 232.714 60.9521 232.614 61.8761 232.614C62.0154 231.138 62.0749 229.655 62.0541 228.172C62.0741 224.535 61.9461 225.18 62.3471 224.75C62.7081 225.096 62.6471 224.95 62.6721 225.377C62.7911 227.177 63.2511 232.439 62.8101 233.35C62.5881 233.75 62.8291 233.786 56.5871 234.011C50.1451 234.197 33.7111 234.349 27.2621 233.847C25.9621 233.74 25.5521 233.697 25.2941 233.399C24.7231 232.549 25.3631 226.733 25.7401 225.344L26.0991 225.116L26.3261 225.474C26.0119 227.841 25.9579 230.235 26.1651 232.614V232.614ZM61.8171 232.853V232.846L61.8081 232.868C61.8106 232.859 61.814 232.85 61.8181 232.842L61.8131 232.857L61.8191 232.838L61.8171 232.853ZM61.8241 232.838V232.831V232.838ZM26.2111 232.838V232.819L26.2171 232.834L26.2081 232.812L26.2111 232.838Z" fill="#212121"/>
<path fill-rule="evenodd" clip-rule="evenodd" d="M18.1328 242.1C18.1281 242.935 18.1685 243.769 18.2538 244.6C20.0968 244.821 62.3098 245.142 62.4148 245.142C62.6348 243.747 62.5758 239.371 62.5708 237.905C62.5708 237.472 62.5188 237.621 62.8588 237.255C63.2218 237.602 63.1588 237.455 63.1828 237.883C63.3478 240.526 63.6908 244.989 63.2938 245.841C63.0798 246.246 63.0298 246.21 59.8228 246.323C51.9128 246.579 19.7108 246.435 17.7038 245.542C17.3618 245.402 17.2948 245.134 17.2518 244.753C17.1569 242.256 17.3583 239.757 17.8518 237.308L18.2108 237.08C18.7718 237.967 18.1198 236.565 18.1328 242.1ZM62.3588 245.373V245.366L62.3508 245.384L62.3598 245.362L62.3588 245.373ZM62.3668 245.358V245.373V245.358ZM18.2998 244.81L18.2918 244.791L18.2988 244.81L18.2938 244.795V244.806L18.2998 244.81Z" fill="#212121"/>
<path fill-rule="evenodd" clip-rule="evenodd" d="M84.4801 209.242C84.6533 210.225 84.7376 211.221 84.7321 212.219V212.219C84.7391 213.065 84.7211 214.005 84.6911 214.861C84.6381 215.981 84.6431 215.887 84.5791 216.061C84.4621 216.261 84.4391 216.284 84.0981 216.461C81.9151 217.598 77.7541 219.555 75.2781 220.682C71.7379 222.362 68.1008 223.829 64.3861 225.076L63.9961 224.904L64.1651 224.515C65.6971 223.781 74.7361 219.105 83.3851 215.315C83.4281 215 83.4471 214.848 83.4601 214.747C83.5791 213.896 83.6901 213.025 83.7731 212.173C84.1521 208.583 83.6331 209.722 84.1351 208.998L84.4801 209.242Z" fill="#212121"/>
<path fill-rule="evenodd" clip-rule="evenodd" d="M81.3382 218.409C81.6318 220.637 81.6831 222.891 81.4912 225.13V225.13C81.4656 225.225 81.4191 225.313 81.3551 225.388C81.2911 225.463 81.2112 225.523 81.1212 225.563C75.1351 228.487 68.974 231.039 62.6732 233.203L62.2832 233.032L62.4522 232.643C67.4732 230.092 72.0732 228.029 76.5782 226.043C77.2672 225.743 79.1962 224.897 79.9542 224.586L79.9632 224.605L80.2272 224.486C81.2912 216.744 80.3672 219.081 80.9932 218.168L81.3382 218.409Z" fill="#212121"/>
<path fill-rule="evenodd" clip-rule="evenodd" d="M84.1279 228.057C84.4553 230.631 84.5303 233.231 84.3519 235.82V235.82C84.1899 236.125 84.1289 236.103 83.3399 236.526C76.8283 240.022 70.0961 243.091 63.1859 245.713L62.7959 245.541L62.9649 245.153C64.2989 244.56 75.3139 238.732 83.1029 235.103C83.3748 232.85 83.5274 230.583 83.5599 228.314C83.5419 228.106 83.5009 228.225 83.7829 227.814L84.1279 228.057Z" fill="#212121"/>
<path fill-rule="evenodd" clip-rule="evenodd" d="M19.449 236.574C22.756 236.904 62.421 236.168 62.421 236.268C63.34 236.248 60.663 236.956 82.555 227.612C81.325 227.266 80.568 227.003 78.743 226.637C78.343 226.562 78.495 226.573 78.395 226.573C78.213 226.541 78.295 226.6 78.001 226.214C78.396 225.914 78.252 225.947 78.65 226.002C80.4348 226.28 82.1996 226.674 83.933 227.182C83.9915 227.212 84.042 227.256 84.0806 227.309C84.1192 227.363 84.1448 227.424 84.1553 227.489C84.1658 227.554 84.1609 227.621 84.1411 227.684C84.1212 227.747 84.087 227.804 84.041 227.851C83.697 228.138 63.59 237.58 63.041 237.706C65.418 237.706 20.761 238.519 17.941 237.348C17.8679 237.32 17.8021 237.276 17.7488 237.219C17.6954 237.162 17.656 237.093 17.6334 237.019C17.6109 236.944 17.6059 236.865 17.6188 236.788C17.6318 236.711 17.6623 236.637 17.708 236.574C18.221 235.947 24.521 233.174 25.714 232.827L26.094 233.014C25.638 233.936 26.737 232.526 19.449 236.574ZM18.449 237.183H18.442L18.434 237.191L18.446 237.183H18.449Z" fill="#212121"/>
<path fill-rule="evenodd" clip-rule="evenodd" d="M179.22 203.1C178.614 206.467 178.142 224.594 179.595 226.789C180.026 227.44 181.709 227.076 182.376 226.374C183.452 225.241 187.182 205.408 187.176 203.419" fill="#212121"/>
<path fill-rule="evenodd" clip-rule="evenodd" d="M179.516 203.149C179.143 205.93 179.008 223.885 180.196 226.349H180.205H180.211H180.217L180.231 226.355H180.239C180.792 226.41 181.345 226.248 181.782 225.905C182.505 225.38 186.845 204.616 186.882 203.411L187.182 203.111L187.482 203.411C187.573 205.242 185.326 220.127 183.518 225.649C183.401 226.164 183.146 226.638 182.779 227.019C181.979 227.763 180.211 228.219 179.291 227.519C179.001 227.27 178.794 226.938 178.697 226.568C177.397 222.643 178.109 206.876 178.936 203.046L179.283 202.802L179.516 203.149Z" fill="#212121"/>
<path fill-rule="evenodd" clip-rule="evenodd" d="M238.116 203.3C238.722 206.667 239.194 224.793 237.741 226.989C237.31 227.639 235.627 227.275 234.961 226.574C233.884 225.441 230.155 205.607 230.161 203.619" fill="#212121"/>
<path fill-rule="evenodd" clip-rule="evenodd" d="M238.411 203.251C239.188 206.851 240.08 223.823 238.49 227.17C238.393 227.387 238.244 227.578 238.056 227.724C237.139 228.424 235.369 227.973 234.568 227.229C234.194 226.853 233.937 226.377 233.829 225.858C232.369 221.398 230.552 210.625 229.961 205.042C229.93 204.736 229.85 203.933 229.861 203.621L230.156 203.321L230.456 203.621C230.489 204.876 234.856 225.612 235.551 226.115C235.973 226.445 236.501 226.609 237.036 226.577L237.102 226.564L237.116 226.559H237.122H237.128H237.137C237.921 224.936 238.002 217.659 238.037 215.838C238.249 201.556 237.488 203.838 238.066 203.015L238.411 203.251Z" fill="#212121"/>
<path fill-rule="evenodd" clip-rule="evenodd" d="M92.8151 234.777C100.286 239.991 92.6531 248.802 84.4661 252.404C81.1845 253.677 77.792 254.642 74.3321 255.288C61.1711 258.041 45.3501 257.382 32.3811 256.711C24.8541 256.322 21.3311 256.318 12.4341 254.211C9.17409 253.388 6.58609 252.835 4.24509 251.301C-1.37391 247.209 -1.14191 237.588 5.86109 233.185C10.7061 229.885 19.2701 228.54 25.0731 228.863C25.2611 228.872 25.1641 228.808 25.5121 229.18C25.1121 229.559 25.2921 229.464 24.9041 229.464C19.9178 229.366 14.9597 230.235 10.3041 232.023C8.14769 232.84 6.1729 234.072 4.49209 235.651C2.91238 237.249 1.90618 239.324 1.63066 241.554C1.35513 243.784 1.82577 246.042 2.96909 247.976C3.75229 249.323 4.96202 250.37 6.40709 250.953C10.0141 252.512 18.6761 254.29 24.8071 254.831C25.4691 254.89 38.0071 255.569 46.0211 255.773C57.7021 255.973 67.9961 255.595 79.2981 252.739C80.7275 252.393 82.1342 251.959 83.5101 251.439C88.1861 249.575 95.0471 244.695 94.9271 239.682C94.7681 235.248 88.4491 233.093 84.0711 232.337L83.8241 231.997L84.1651 231.751C87.2317 232.129 90.1814 233.161 92.8151 234.777V234.777Z" fill="#212121"/>
<path fill-rule="evenodd" clip-rule="evenodd" d="M10.7818 245.192C14.3058 248.78 66.1818 251.998 84.2878 244.841L84.7408 244.834L85.0678 245.134V245.141L85.0768 245.588L84.7688 245.922C78.0688 249.003 66.2228 250.365 59.4618 250.86C44.6448 252.078 13.4498 251.705 8.76884 247.408C8.64084 247.288 8.73484 247.46 8.23584 246.266L8.66184 245.209C8.76184 245.143 8.31284 245.354 9.71884 244.766L10.7818 245.192Z" fill="#212121"/>
<path fill-rule="evenodd" clip-rule="evenodd" d="M264.507 5.31396C265.05 5.33143 265.576 5.51192 266.015 5.83196C266.807 6.55996 266.964 8.14196 267.115 9.56396C269.407 32.427 264.429 166.285 262.915 195.934C262.604 201.916 262.622 201.792 262.243 202.234C261.735 202.606 261.13 202.824 260.502 202.862C249.379 204.61 172.294 203.097 168.657 203.097C167.619 203.081 167.892 203.126 167.373 202.906L167.2 202.492V202.484L167.377 202.07C168.377 201.657 247.325 202.55 260.35 200.57C260.929 190.636 266.734 22.246 263.933 8.23496C261.715 7.12496 200.222 8.81796 193.087 9.06696C187.624 9.26696 163.013 10.142 157.581 11.348C157.042 22.371 154.62 89.9039 153.869 131.497C152.96 182.937 154.96 178.705 153.645 179.417H153.637L153.203 179.282C150.103 173.576 154.041 19.175 154.855 10.226C154.88 9.98321 154.965 9.75061 155.103 9.5495C155.242 9.3484 155.428 9.18522 155.646 9.07496C161.17 5.99996 256.157 4.28896 264.507 5.31396Z" fill="#212121"/>
<path fill-rule="evenodd" clip-rule="evenodd" d="M180.09 176.776C202.913 176.857 238.923 177.692 261.89 179.488L262.298 179.694L262.451 180.109V180.116L262.251 180.516L261.823 180.677C241.634 180.677 233.164 180.891 191.063 179.735C179.109 179.428 156.781 178.444 154.834 178.517C154.255 178.517 154.647 178.596 153.996 178.409L153.763 178.028V178.02L153.879 177.587L154.269 177.348C154.4 177.21 164.345 176.776 180.09 176.776Z" fill="#212121"/>
<path fill-rule="evenodd" clip-rule="evenodd" d="M231.345 94.583C268.515 95.542 264.277 94.852 265.428 95.296L265.617 95.702V95.71L265.456 96.128C263.39 97.091 184.067 96.504 154.584 94.837C154.191 94.814 154.453 94.901 153.266 94.316L152.894 93.238V93.231L153.394 92.209C156.052 91.292 145.552 92.323 231.345 94.583Z" fill="#212121"/>
<path fill-rule="evenodd" clip-rule="evenodd" d="M160.439 44.3C166.884 44.579 176.411 44.339 187.747 44.312C200.325 44.291 203.663 44.53 212.758 44.877C269.464 47.015 264.764 45.677 265.351 46.726V46.734L265.223 47.162C263.023 48.398 204.54 46.881 191.954 46.962C178.122 47.072 159.854 47.75 155.554 46.885L154.577 46.299L154.295 45.199V45.191L154.882 44.214C156.943 43.683 154.633 44.044 160.439 44.3Z" fill="#212121"/>
<path fill-rule="evenodd" clip-rule="evenodd" d="M212.692 5.95405L213.703 6.48005L214.052 7.56405C214.052 7.71605 213.968 8.13205 213.699 11.571C212.885 21.976 212.246 43.75 211.684 44.961C210.32 45.516 210.746 45.436 210.556 32.912C210.456 26.257 210.43 20.428 210.727 13.42C210.818 11.393 211.011 7.92505 211.074 7.31305L211.6 6.30005L212.685 5.95105L212.692 5.95405Z" fill="#212121"/>
<path fill-rule="evenodd" clip-rule="evenodd" d="M197.361 44.153L198.395 44.631L198.795 45.699C198.795 45.799 196.836 89.824 196.453 93.752L196.258 94.178L195.845 94.346H195.837C195.076 93.978 195.272 94.582 195.291 87.866C195.327 69.12 195.206 67.429 195.808 45.59L196.286 44.556L197.354 44.156L197.361 44.153Z" fill="#212121"/>
<path fill-rule="evenodd" clip-rule="evenodd" d="M222.664 94.2L223.696 94.683L224.09 95.752C224.09 96.665 223.96 97.408 223.298 113.487C220.435 183.526 221.01 178.406 220.068 178.804H220.06L219.654 178.604C219.418 177.962 219.473 180.074 219.654 162.461C220.298 103.826 221.103 101.59 221.103 95.624L221.586 94.592L222.656 94.198L222.664 94.2Z" fill="#212121"/>
<path fill-rule="evenodd" clip-rule="evenodd" d="M195.437 140.98C223.2 141.938 220.215 141.746 220.858 142.024L221.033 142.436V142.443C220.683 143.215 221.476 143.027 213.195 143.072C174.295 143.281 160.672 142.585 153.489 142.585L152.449 142.119L152.037 141.056V141.049L152.502 140.009L153.565 139.597C156.626 139.9 140.839 139.072 195.437 140.98Z" fill="#212121"/>
<path fill-rule="evenodd" clip-rule="evenodd" d="M244.131 150.053C251.507 150.19 251.66 150.262 251.915 151.794C252.603 156.086 250.681 172.294 250.369 178.655C250.306 179.938 250.424 179.6 250.028 179.997C249.663 179.622 249.734 179.785 249.728 179.361C249.666 172.095 251.159 151.85 250.423 151.85C249.039 151.494 237.552 151.34 233.647 152.074C233.471 154.133 232.911 171.629 232.377 179.021L232.063 179.309L231.777 178.995C231.823 176.853 231.929 158.742 231.966 158.742C232.003 157.101 232.066 154.1 232.166 152.459C232.254 151.039 232.239 150.817 234.141 150.508C237.46 150.168 240.795 150.016 244.131 150.053Z" fill="#212121"/>
<path fill-rule="evenodd" clip-rule="evenodd" d="M227.916 102.647C228.562 102.709 228.945 103.3 229.289 103.906C232.614 109.868 240.71 140.506 240.312 149.66C240.296 150.021 240.348 149.9 239.984 150.232C239.398 149.578 240.002 150.599 239.448 146.279C237.867 134.803 230.835 110.357 228.206 105.042C228.006 110.111 230.944 146.983 234.006 150.804L233.966 151.226L233.543 151.185C232.575 150.036 231.732 146.621 231.39 145.162C229.39 136.704 227.876 123.82 227.19 115.072C227.043 113.2 226.43 105.335 226.879 103.516C226.916 103.27 227.042 103.046 227.233 102.886C227.424 102.726 227.667 102.641 227.916 102.647V102.647Z" fill="#212121"/>
<path fill-rule="evenodd" clip-rule="evenodd" d="M245.9 149.559C246.522 145.489 246.57 117.553 244.757 114.303C242.917 115.425 241.99 125.733 241.802 127.803C240.502 142.42 240.902 144.238 240.652 149.291C240.642 149.476 240.706 149.372 240.335 149.717C239.985 149.35 240.043 149.457 240.044 149.272C240.044 146.722 239.964 145.48 239.892 142.841C239.744 136.888 240.319 123.604 241.807 117.393C242.226 115.681 242.986 112.968 244.725 112.771C245.885 112.664 246.281 113.871 246.558 115.035C248.106 121.755 247.719 142.717 246.541 149.388C246.456 149.826 246.529 149.693 246.124 149.967C245.865 149.586 245.884 149.66 245.9 149.559Z" fill="#212121"/>
<path fill-rule="evenodd" clip-rule="evenodd" d="M257.706 107.24C258.524 107.408 258.501 108.275 258.506 109.392C258.506 117.398 255.782 141.292 251.849 149.937C251.716 150.215 251.817 150.125 251.349 150.303C251.135 149.715 251.139 150.225 251.663 148.741C254.497 140.781 256.712 118.299 256.982 111.004C254.653 116.983 249.014 134.235 248.055 140.283C247.597 143.332 246.301 146.947 246.901 149.87C246.922 149.97 246.95 149.886 246.692 150.303C246.28 150.047 246.339 150.109 246.313 150.008C245.73 147.578 246.287 144.889 246.751 142.26C247.166 139.86 246.951 140.61 247.331 138.428C249.073 128.912 255.556 109.291 256.931 107.571C257.02 107.453 257.138 107.36 257.274 107.302C257.41 107.244 257.559 107.223 257.706 107.24V107.24Z" fill="#212121"/>
<path fill-rule="evenodd" clip-rule="evenodd" d="M209.548 170.578C213.825 170.578 219.407 171.019 219.766 171.068L220.059 171.368L219.752 171.656C215.384 171.956 199.892 172.106 197.568 172.605C197.081 172.717 196.626 172.937 196.236 173.249C195.846 173.561 195.532 173.958 195.317 174.408C195.102 174.859 194.991 175.353 194.993 175.852C194.995 176.352 195.11 176.844 195.329 177.293C195.542 177.68 195.871 177.992 196.269 178.183V178.183C196.284 178.192 196.301 178.199 196.317 178.205L196.497 178.59L196.112 178.769C195.707 178.646 195.336 178.428 195.03 178.134C193.574 176.834 193.589 173.626 195.565 172.07C196.462 171.427 197.533 171.071 198.636 171.047H198.643C201.89 170.7 206.437 170.578 209.548 170.578Z" fill="#212121"/>
<path fill-rule="evenodd" clip-rule="evenodd" d="M255.021 38.848C259.297 38.848 264.879 39.289 265.239 39.337L265.531 39.637L265.224 39.924C260.857 40.224 245.365 40.375 243.04 40.873C242.553 40.9848 242.098 41.2051 241.708 41.5175C241.318 41.8299 241.004 42.2263 240.789 42.6771C240.574 43.128 240.463 43.6216 240.465 44.1211C240.468 44.6206 240.583 45.1132 240.802 45.562C241.014 45.9495 241.343 46.2604 241.742 46.451V46.451C241.757 46.4606 241.773 46.4684 241.79 46.474L241.969 46.859L241.585 47.038C241.179 46.9146 240.808 46.697 240.503 46.403C239.047 45.103 239.062 41.895 241.038 40.339C241.935 39.6962 243.005 39.3395 244.108 39.316H244.116C247.363 38.972 251.909 38.848 255.021 38.848Z" fill="#212121"/>
<path fill-rule="evenodd" clip-rule="evenodd" d="M186.062 86.112C188.051 86.199 187.836 85.926 187.198 92.467C187.13 93.036 187.109 93.6095 187.133 94.182V94.174V94.189V94.182V94.189V94.182V94.193V94.182V94.193V94.182V94.189L187.127 94.178V94.185L187.12 94.174V94.182L187.111 94.167V94.174L187.1 94.159L187.087 94.144L187.071 94.129L187.051 94.111L187.027 94.096L187.003 94.081C186.974 94.0697 186.944 94.061 186.913 94.055L187.183 94.377L186.861 94.646H186.837C186.579 94.577 186.513 94.381 186.471 94.137C186.271 92.976 186.504 88.937 186.402 87.398C185.261 87.419 168.491 87.473 166.17 87.998C165.754 88.0565 165.354 88.2005 164.995 88.421C164.323 88.8539 163.84 89.5252 163.642 90.3C163.404 90.9005 163.391 91.5667 163.605 92.176C163.819 92.7854 164.246 93.2971 164.807 93.617L164.861 93.64L165.041 94.024C164.475 94.288 164.732 94.181 164.584 94.181C164.329 94.0948 164.089 93.9689 163.872 93.808C162.107 92.614 161.915 88.766 164.746 87.131C165.216 86.8863 165.723 86.7211 166.246 86.642C171.1 85.947 181.131 85.9 186.062 86.112ZM186.388 87.076V87.064L186.393 87.079V87.072L186.4 87.091V87.083V87.094C186.4 87.075 186.394 87.075 186.388 87.053V87.076Z" fill="#212121"/>
<path fill-rule="evenodd" clip-rule="evenodd" d="M176.236 134.741C183.757 134.792 183.422 134.936 183.609 135.241C183.902 135.741 183.725 137.401 183.62 138.6C183.46 139.54 183.412 140.496 183.476 141.448L183.483 141.471V141.46V141.468V141.46V141.468V141.457V141.465L183.477 141.454V141.463L183.47 141.451V141.457L183.461 141.445V141.451L183.451 141.437L183.439 141.423V141.429L183.425 141.414L183.407 141.4L183.386 141.385L183.362 141.371H183.367L183.34 141.359L183.31 141.351H183.315L183.284 141.345H183.252H183.257L183.532 141.661L183.214 141.937C183.148 141.932 183.085 141.91 183.03 141.872C182.976 141.835 182.932 141.784 182.904 141.724C182.566 141.074 182.733 137.476 182.599 136.106C182.487 136.106 169.399 136.234 163.583 136.477C162.47 136.398 161.361 136.668 160.409 137.25C160.103 137.452 159.861 137.736 159.71 138.07C159.559 138.404 159.506 138.774 159.557 139.137C159.608 139.5 159.761 139.841 159.999 140.121C160.236 140.4 160.547 140.607 160.897 140.716L161.105 141.086C160.712 141.306 160.77 141.305 160.669 141.279C160.433 141.22 160.205 141.132 159.991 141.017C157.691 139.838 158.211 135.717 162.479 135.247C165.563 134.821 173.127 134.741 176.236 134.741ZM182.584 135.812V135.806L182.594 135.829V135.823L182.601 135.837L182.591 135.8V135.817L182.582 135.792L182.584 135.812Z" fill="#212121"/>
<path fill-rule="evenodd" clip-rule="evenodd" d="M209.4 163.734C213.677 163.734 219.259 164.175 219.618 164.223L219.911 164.523L219.604 164.81C215.236 165.11 199.744 165.261 197.42 165.759C196.933 165.871 196.478 166.091 196.088 166.404C195.698 166.716 195.384 167.112 195.169 167.563C194.954 168.014 194.843 168.508 194.845 169.007C194.848 169.507 194.963 169.999 195.182 170.448C195.394 170.836 195.722 171.147 196.121 171.337C196.136 171.346 196.152 171.354 196.169 171.36L196.349 171.744L195.964 171.924C195.558 171.8 195.188 171.583 194.882 171.289C193.427 169.984 193.441 166.781 195.417 165.225C196.314 164.582 197.384 164.225 198.488 164.201H198.495C201.742 163.858 206.289 163.734 209.4 163.734Z" fill="#212121"/>
<path fill-rule="evenodd" clip-rule="evenodd" d="M254.873 32C259.149 32 264.731 32.442 265.091 32.49L265.383 32.79L265.076 33.077C260.709 33.377 245.217 33.528 242.892 34.026C242.405 34.1378 241.95 34.3581 241.56 34.6705C241.17 34.9829 240.856 35.3793 240.641 35.8301C240.426 36.2809 240.315 36.7745 240.317 37.2741C240.32 37.7736 240.435 38.2662 240.654 38.715C240.866 39.1025 241.195 39.4134 241.594 39.604V39.604C241.609 39.6132 241.625 39.6206 241.642 39.626L241.821 40.011L241.437 40.19C241.031 40.0674 240.66 39.8497 240.355 39.555C238.899 38.255 238.914 35.048 240.89 33.492C241.787 32.8494 242.857 32.4925 243.96 32.468H243.968C247.215 32.128 251.762 32 254.873 32Z" fill="#212121"/>
<path fill-rule="evenodd" clip-rule="evenodd" d="M185.3 79.51C185.865 79.541 186.069 79.887 186.129 80.448C186.26 81.859 185.499 85.807 185.709 86.508V86.527V86.519L185.714 86.534V86.527V86.538V86.531V86.538V86.531V86.538L185.708 86.531V86.538L185.702 86.531L185.707 86.538L185.7 86.527V86.534L185.691 86.523L185.697 86.531L185.687 86.519L185.693 86.527L185.681 86.516L185.687 86.523L185.675 86.508L185.681 86.516L185.667 86.504H185.673L185.656 86.493H185.663L185.645 86.481L185.652 86.489L185.632 86.478H185.639L185.618 86.467H185.625L185.603 86.459H185.61L185.587 86.452H185.594H185.571H185.578H185.554H185.562L185.84 86.77L185.524 87.046C185.446 87.0424 185.371 87.0163 185.307 86.971C184.658 86.498 185.146 82.371 184.961 80.739C184.332 80.784 175.921 80.806 175.82 80.806C166.72 80.906 165.58 80.992 164.594 81.8L164.574 81.819C164.228 82.1132 163.947 82.4767 163.75 82.8861C163.553 83.2955 163.444 83.7417 163.43 84.1958C163.417 84.6499 163.498 85.1019 163.67 85.5226C163.841 85.9432 164.099 86.3232 164.427 86.638C164.857 86.919 164.66 86.626 164.927 87.191C164.518 87.381 164.576 87.385 164.475 87.352C163.747 87.0313 163.153 86.4691 162.791 85.7605C162.43 85.0519 162.325 84.2403 162.493 83.463C162.812 81.338 164.233 79.917 166.917 79.693C173.035 79.2553 179.175 79.1942 185.3 79.51V79.51ZM184.918 80.48V80.473L184.924 80.484V80.477L184.93 80.492L184.938 80.507V80.5L184.947 80.515L184.942 80.507L184.948 80.518L184.932 80.473L184.918 80.48Z" fill="#212121"/>
<path fill-rule="evenodd" clip-rule="evenodd" d="M175.058 129.484C175.548 129.484 181.314 129.519 181.847 129.743C181.924 129.779 181.995 129.826 182.058 129.883V129.883C182.486 130.514 182.652 131.288 182.519 132.039C182.443 133.139 182.297 134.233 182.081 135.315C182.062 135.415 182.107 135.344 181.735 135.628C181.278 135.022 181.587 135.761 181.587 132.869C181.611 132.174 181.537 131.48 181.367 130.806C173.401 131.044 162.61 130.932 161.033 131.596C160.989 131.611 160.894 131.655 160.851 131.674C160.597 131.789 160.364 131.945 160.161 132.137C159.891 132.35 159.683 132.631 159.56 132.953C159.436 133.274 159.402 133.622 159.461 133.961C159.519 134.3 159.669 134.617 159.893 134.878C160.117 135.139 160.407 135.335 160.733 135.444C160.763 135.455 160.75 135.451 160.785 135.462L160.993 135.832L160.623 136.039C160.602 136.036 160.581 136.032 160.56 136.025C160.126 135.93 159.724 135.725 159.392 135.429C159.061 135.133 158.812 134.756 158.669 134.335C158.548 133.957 158.505 133.558 158.543 133.162C158.58 132.767 158.698 132.383 158.889 132.035C159.265 131.362 159.837 130.819 160.529 130.48C161.527 130.073 162.592 129.856 163.669 129.839C167.057 129.568 171.673 129.484 175.058 129.484ZM181.336 130.746H181.33H181.336ZM181.319 130.729L181.304 130.711L181.317 130.726L181.31 130.72L181.32 130.731H181.314L181.326 130.742L181.339 130.751L181.331 130.745L181.341 130.754C181.335 130.746 181.329 130.735 181.318 130.722L181.329 130.739L181.311 130.716L181.319 130.729Z" fill="#212121"/>
<path fill-rule="evenodd" clip-rule="evenodd" d="M211.088 156.348C214.903 156.348 220.231 156.82 220.449 156.848L220.742 157.148L220.435 157.436C216.149 157.756 202.542 157.777 200.703 158.467C200.015 158.706 199.438 159.188 199.081 159.823V159.823C198.113 161.516 198.701 163.444 199.914 163.937L200.094 164.321L199.709 164.501C199.459 164.427 199.222 164.318 199.004 164.176C197.047 162.92 196.904 159.007 199.771 157.376H199.783C201.588 156.4 209.053 156.348 211.088 156.348Z" fill="#212121"/>
<path fill-rule="evenodd" clip-rule="evenodd" d="M256.561 24.618C260.376 24.618 265.704 25.09 265.922 25.123L266.215 25.423L265.907 25.711C261.622 26.031 248.015 26.052 246.176 26.742C245.488 26.9811 244.911 27.4634 244.554 28.098V28.098C243.587 29.791 244.174 31.719 245.387 32.211L245.567 32.596L245.182 32.776C244.934 32.7019 244.698 32.5924 244.482 32.451C242.525 31.195 242.382 27.282 245.249 25.651H245.261C247.06 24.669 254.526 24.618 256.561 24.618Z" fill="#212121"/>
<path fill-rule="evenodd" clip-rule="evenodd" d="M159.788 148.988C159.903 149 160.014 149.036 160.114 149.094C160.213 149.152 160.3 149.23 160.367 149.324C161.303 150.912 161.467 174.534 160.527 177.097L160.163 177.31C159.889 176.83 159.963 177.085 159.993 176.541C160.059 175.096 159.854 170.62 159.854 170.5C159.69 165.517 159.519 152.075 159.354 150.075C157.686 149.843 155.996 149.81 154.32 149.975C154.213 149.987 154.226 150.002 154.184 150.002L154.16 150.009H154.13L153.753 149.809L153.953 149.432C155.86 148.963 157.832 148.813 159.788 148.988ZM159.583 150.135L159.57 150.127L159.593 150.135L159.609 150.142H159.6L159.573 150.131L159.583 150.135ZM159.568 150.127L159.558 150.12L159.568 150.127Z" fill="#212121"/>
<path fill-rule="evenodd" clip-rule="evenodd" d="M162.02 17.779C162.135 17.7904 162.246 17.8263 162.345 17.8843C162.445 17.9422 162.531 18.0209 162.598 18.115C163.535 19.703 163.698 43.325 162.759 45.888L162.395 46.101C162.121 45.62 162.195 45.876 162.225 45.332C162.291 43.887 162.086 39.411 162.086 39.291C161.921 34.308 161.751 20.865 161.586 18.866C159.918 18.6325 158.228 18.5973 156.552 18.761C156.445 18.773 156.458 18.787 156.416 18.787L156.392 18.795H156.362L155.985 18.595L156.185 18.218C158.092 17.7506 160.064 17.6023 162.02 17.779V17.779ZM161.815 18.926L161.802 18.918L161.825 18.926L161.841 18.933H161.832L161.805 18.922L161.815 18.926ZM161.8 18.918L161.79 18.911L161.8 18.918Z" fill="#212121"/>
<path fill-rule="evenodd" clip-rule="evenodd" d="M218.063 17.883C218.178 17.8948 218.288 17.9308 218.388 17.9887C218.488 18.0467 218.574 18.1252 218.641 18.219C219.578 19.807 219.741 43.429 218.802 45.993L218.438 46.205C218.163 45.725 218.238 45.98 218.267 45.436C218.333 43.991 218.129 39.515 218.129 39.395C217.964 34.412 217.793 20.97 217.629 18.97C215.96 18.7371 214.27 18.7019 212.594 18.865C212.487 18.877 212.5 18.892 212.459 18.892L212.434 18.899H212.404L212.028 18.705L212.228 18.327C214.135 17.8581 216.107 17.7081 218.063 17.883ZM217.857 19.03L217.845 19.022L217.867 19.03H217.861L217.878 19.038H217.868L217.841 19.027L217.857 19.03ZM217.842 19.022L217.832 19.015L217.842 19.022Z" fill="#212121"/>
<path fill-rule="evenodd" clip-rule="evenodd" d="M166.719 152.044C167.109 152.237 167.158 152.488 167.242 152.952C168.068 157.907 168.211 175.43 167.398 177.908L167.033 178.118L166.825 177.751C166.88 176.451 166.866 175.149 166.782 173.851C166.403 164.831 166.168 154.38 166.011 153.09C165.389 152.995 164.762 152.934 164.134 152.907C160.515 152.789 161.38 152.997 160.846 152.997L160.825 153.004H160.795L160.418 152.81L160.618 152.432C162.61 151.923 164.679 151.791 166.719 152.044V152.044ZM166.243 153.15L166.23 153.142L166.253 153.154L166.244 153.146L166.261 153.154H166.252H166.245L166.223 153.147L166.243 153.15ZM166.227 153.142L166.216 153.135L166.227 153.142Z" fill="#212121"/>
<path fill-rule="evenodd" clip-rule="evenodd" d="M168.874 19.017C169.264 19.21 169.313 19.461 169.397 19.925C170.223 24.88 170.366 42.403 169.553 44.881L169.188 45.09L168.98 44.724C169.036 43.4242 169.021 42.1223 168.937 40.824C168.558 31.804 168.323 21.352 168.166 20.063C167.544 19.9679 166.918 19.9069 166.289 19.88C162.67 19.762 163.535 19.969 163.001 19.969L162.98 19.977H162.95L162.573 19.777L162.773 19.4C164.765 18.8915 166.835 18.7616 168.874 19.017V19.017ZM168.398 20.123L168.385 20.115L168.408 20.126L168.399 20.119L168.416 20.126H168.407H168.4L168.378 20.118L168.398 20.123ZM168.382 20.115L168.371 20.108L168.382 20.115Z" fill="#212121"/>
<path fill-rule="evenodd" clip-rule="evenodd" d="M224.916 19.121C225.306 19.314 225.355 19.565 225.44 20.029C226.265 24.984 226.409 42.507 225.595 44.985L225.231 45.194L225.023 44.828C225.078 43.5282 225.064 42.2263 224.98 40.928C224.6 31.908 224.366 21.456 224.208 20.167C223.586 20.0719 222.96 20.0108 222.331 19.984C218.713 19.866 219.578 20.074 219.044 20.074L219.023 20.081H218.992L218.616 19.887L218.816 19.509C220.807 18.9995 222.877 18.8679 224.916 19.121V19.121ZM224.44 20.227L224.428 20.219L224.451 20.231L224.441 20.223L224.458 20.231H224.449H224.442L224.421 20.224L224.44 20.227ZM224.425 20.219L224.414 20.212L224.425 20.219Z" fill="#212121"/>
<path fill-rule="evenodd" clip-rule="evenodd" d="M179.965 155.217C180.849 155.31 180.915 155.651 181.065 156.547C181.777 163.161 181.929 169.823 181.52 176.463C181.497 177.071 181.407 177.675 181.253 178.263L180.889 178.472C180.589 177.949 180.712 178.318 180.722 177.422C180.729 175.728 180.517 173.24 180.322 168.845C180.26 167.111 179.931 158.153 179.732 156.411C179.632 156.411 179.432 156.335 178.632 156.277C178.206 156.231 176.656 156.154 176.014 156.177C174.228 156.177 174.875 156.488 174.149 156.113L174.349 155.736C176.184 155.28 178.077 155.105 179.965 155.217V155.217ZM179.965 156.472L179.953 156.465L179.977 156.476L179.968 156.468L179.986 156.476H179.977H179.971L179.95 156.469L179.965 156.472ZM179.949 156.465H179.943H179.949Z" fill="#212121"/>
<path fill-rule="evenodd" clip-rule="evenodd" d="M182.211 19.919C182.679 20.15 182.702 20.445 182.863 21.701C183.385 25.945 183.932 41.583 183.019 45.501C182.975 45.688 183.038 45.618 182.612 45.863L182.4 45.5C182.534 44.694 182.3 40.559 182.24 39.552C182.086 36.976 181.687 22.501 181.499 20.962C179.791 20.7185 178.059 20.687 176.343 20.868H176.334L176.313 20.876H176.283L175.906 20.676L176.106 20.299C178.1 19.7929 180.17 19.6641 182.211 19.919V19.919ZM181.734 21.025L181.722 21.017L181.745 21.028H181.739H181.756H181.747H181.74L181.719 21.02L181.734 21.025ZM181.719 21.017H181.707H181.719Z" fill="#212121"/>
<path fill-rule="evenodd" clip-rule="evenodd" d="M172.563 148.922C174.017 148.922 174.071 149.161 174.212 150.685C174.639 155.451 174.983 173.031 174.048 177.035C174.012 177.189 174.048 177.135 173.648 177.368C173.336 176.821 173.485 177.344 173.502 175.84C173.502 174.798 172.959 152.414 172.757 150.304C172.247 150.257 167.465 150.204 167.09 150.204C167.09 151.298 167.082 153.093 167.108 154.31L166.828 154.631L166.508 154.351C165.947 149.251 166.08 149.525 166.215 149.351C166.495 149.101 166.354 149.232 169.564 149.004C170.572 148.96 171.589 148.922 172.563 148.922ZM173.147 150.338H173.137H173.131H173.147Z" fill="#212121"/>
<path fill-rule="evenodd" clip-rule="evenodd" d="M174.8 17.713C176.254 17.713 176.308 17.952 176.448 19.476C176.876 24.242 177.22 41.822 176.285 45.826C176.249 45.98 176.285 45.926 175.885 46.158C175.573 45.611 175.722 46.135 175.739 44.63C175.739 43.589 175.195 21.205 174.994 19.095C174.485 19.048 169.706 18.995 169.327 18.995C169.327 20.089 169.319 21.884 169.344 23.101L169.065 23.422L168.745 23.142C168.184 18.042 168.317 18.316 168.452 18.142C168.732 17.892 168.591 18.023 171.801 17.794C172.8 17.75 173.821 17.713 174.8 17.713ZM175.384 19.128H175.374H175.368H175.384Z" fill="#212121"/>
<path fill-rule="evenodd" clip-rule="evenodd" d="M205.161 109.591C207.597 109.701 209.984 110.308 212.177 111.373C217.718 114.417 219.066 121.073 217.008 127.061C215.05 133.549 207.346 135.186 200.999 133.319C193.687 131.142 189.47 125.069 193.05 117.41C194.105 115.082 195.808 113.106 197.956 111.72C200.103 110.333 202.605 109.594 205.161 109.591ZM201.956 111.491C195.023 113.524 191.618 121.391 194.009 126.344C197.709 133.908 213.209 135.912 216.409 126.962C218.544 119.662 215.47 113.782 210.385 112.028C209.076 111.618 207.739 111.305 206.385 111.091C204.897 110.941 203.394 111.076 201.956 111.489V111.491Z" fill="#212121"/>
<path fill-rule="evenodd" clip-rule="evenodd" d="M196.824 117.281C198.894 117.319 199.602 118.746 200.632 119.713C200.873 119.966 201.173 120.156 201.506 120.265C201.838 120.374 202.192 120.4 202.537 120.34C203.134 120.306 203.726 120.462 204.229 120.786C204.732 121.109 205.12 121.583 205.337 122.14C205.691 122.795 205.815 123.551 205.69 124.285V124.285C205.336 125.995 203.431 127.541 201.75 128.008C201.355 128.081 200.977 128.226 200.636 128.437C200.031 128.944 200.236 130.024 199.968 130.963C199.93 131.087 199.991 131.026 199.576 131.274C199.276 130.765 199.385 131.062 199.4 130.504C199.419 129.393 199.047 128.104 200.463 127.281C201.263 126.975 202.02 126.564 202.712 126.058C203.431 125.554 203.967 124.832 204.242 123.998V123.998C204.263 123.638 204.204 123.278 204.069 122.945C203.934 122.611 203.725 122.311 203.46 122.068C202.65 121.404 201.407 122.463 199.652 120.729C199.423 120.529 198.621 119.484 198.203 119.072C197.833 118.681 197.337 118.433 196.803 118.372C195.854 118.199 194.875 118.346 194.019 118.79C193.591 119.079 193.938 119.003 193.313 119.054L193.279 118.631C193.735 118.16 194.289 117.795 194.901 117.562C195.514 117.329 196.17 117.233 196.824 117.281V117.281Z" fill="#212121"/>
<path fill-rule="evenodd" clip-rule="evenodd" d="M201.9 111.045C201.804 111.592 201.896 112.156 202.16 112.644C202.424 113.133 202.845 113.518 203.355 113.738C205.362 114.638 206.995 113.23 209.055 113.971C210.813 114.647 211.59 116.847 212.708 116.934C213.156 116.935 213.594 116.802 213.965 116.552C214.386 116.177 214.719 115.712 214.939 115.193L215.327 115.027L215.489 115.416C215.345 115.996 215.108 116.55 214.789 117.055C214.262 117.669 213.526 118.067 212.723 118.17C212.367 118.182 212.011 118.12 211.679 117.99C211.347 117.859 211.045 117.662 210.792 117.411C210.179 116.715 209.507 116.072 208.786 115.488C207.397 114.688 205.464 116.115 203.165 115.074C202.384 114.748 201.756 114.136 201.411 113.363C201.066 112.589 201.03 111.713 201.309 110.914L201.668 110.686L201.9 111.045Z" fill="#212121"/>
<path fill-rule="evenodd" clip-rule="evenodd" d="M217.583 123.418L217.427 123.81C216.934 124.126 216.738 124.677 216.29 125.469C214.908 127.88 212.942 126.769 211.482 127.948C210.372 128.873 209.604 130.91 210.35 132.29C210.45 132.464 210.432 132.336 210.388 132.839C209.888 132.796 209.988 132.839 209.838 132.679C207.984 130.707 209.126 126.752 212.178 125.989C213.109 125.92 214.019 125.679 214.863 125.28C215.619 124.702 216.163 123.565 217.19 123.266L217.583 123.418Z" fill="#212121"/>
<path fill-rule="evenodd" clip-rule="evenodd" d="M195.739 109.867C196.177 110.047 196.559 110.341 196.846 110.717C197.141 111.077 197.389 111.474 197.583 111.897C197.637 112.057 197.702 112.34 197.738 112.514C197.793 112.756 197.785 112.602 197.752 113.114C197.252 113.075 197.37 113.1 197.157 113.007C196.546 112.772 196.047 112.315 195.757 111.728C195.473 111.319 195.303 110.84 195.266 110.343C195.24 110.184 195.235 110.292 195.314 109.803L195.739 109.867Z" fill="#212121"/>
<path fill-rule="evenodd" clip-rule="evenodd" d="M215.537 134.429L215.514 134.849C213.611 136.524 211.293 137.657 208.803 138.128C201.403 139.689 194.27 136.948 190.274 131.07C185.653 124.125 186.622 115.423 196.34 108.47L196.761 108.525C196.666 109.252 196.961 108.553 194.772 110.67C192.438 112.826 190.676 115.528 189.646 118.534C187.461 125.734 191.553 132.485 197.515 135.466C203.654 138.508 211.44 137.493 215.115 134.406L215.537 134.429Z" fill="#212121"/>
<path fill-rule="evenodd" clip-rule="evenodd" d="M205.69 138.364C205.912 138.939 206.012 139.555 205.983 140.171C206.013 140.629 205.905 141.085 205.674 141.481C205.542 141.739 205.624 141.632 205.263 141.981C204.905 141.604 205.002 141.729 204.863 141.481C204.755 141.288 204.661 141.088 204.583 140.881C204.459 140.315 204.452 139.729 204.564 139.16V139.16C204.627 138.921 204.734 138.696 204.88 138.497C205.126 138.155 205.067 138.23 205.475 137.997L205.69 138.364Z" fill="#212121"/>
<path fill-rule="evenodd" clip-rule="evenodd" d="M212.2 133.55C212.577 133.893 212.861 134.326 213.026 134.809C213.064 135.064 213.076 135.322 213.064 135.58L212.977 135.993L212.565 135.901C212.246 135.796 211.958 135.614 211.726 135.37C211.494 135.127 211.326 134.831 211.236 134.507C211.096 134.051 211.119 133.56 211.3 133.119C211.628 133.195 211.935 133.343 212.2 133.55V133.55Z" fill="#212121"/>
<path fill-rule="evenodd" clip-rule="evenodd" d="M238.142 60.7249C238.632 60.8369 238.796 61.1249 238.877 61.6069C239.518 65.4839 239.638 87.9349 239.487 95.3809L239.187 95.6809L238.887 95.3809C238.766 90.0309 237.851 65.4279 237.464 62.1199C234.583 61.9289 219.464 62.2839 213.714 62.7489C212.014 62.8919 212.243 62.8909 212.214 63.0359C211.7 66.0189 209.382 87.5579 209.12 92.9359C209.042 94.7009 209.239 94.1359 208.872 94.6549L208.525 94.41C208.125 92.293 209.854 68.6389 210.806 62.7899C210.906 62.1979 210.959 61.8609 211.401 61.6469C213.172 60.8999 236.177 60.3129 238.142 60.7249Z" fill="#212121"/>
<path fill-rule="evenodd" clip-rule="evenodd" d="M231.561 65.762C233.807 65.77 234.084 65.801 234.398 66.102C234.575 66.3402 234.671 66.6291 234.672 66.926C235.037 70.09 235.472 89.61 235.267 90.417C235.227 90.5373 235.153 90.6438 235.055 90.724C234.957 90.8042 234.838 90.8548 234.712 90.87C234.485 90.879 213.338 89.87 213.154 89.683C213.133 89.6566 213.116 89.6268 213.105 89.595L213.091 89.546C213.427 89.488 213.535 89.469 213.091 89.546C212.784 87.946 213.961 72.606 214.476 68.433C214.712 66.533 214.676 66.523 216.343 66.34C219.844 66 227.679 65.762 231.561 65.762ZM215.92 67.762C215.507 70.046 213.65 86.553 213.667 89.2C220.167 89.286 225.448 89.348 233.943 89.519C233.893 86 233.536 70.627 233.214 67.272C230.5 67.149 218.553 67.427 215.92 67.764V67.762ZM215.983 67.462V67.45V67.462Z" fill="#212121"/>
<path fill-rule="evenodd" clip-rule="evenodd" d="M239.389 76.366C241.385 80.0959 243.126 83.9571 244.6 87.923C245.531 89.8749 246.247 91.9227 246.734 94.03C247.184 95.505 247.234 94.881 247.048 95.569C246.573 95.437 246.666 95.495 246.56 95.338C245.853 94.0717 245.213 92.77 244.64 91.438C242.404 87.223 240.248 80.838 238.84 76.605L238.994 76.205L239.389 76.366Z" fill="#212121"/>
<path fill-rule="evenodd" clip-rule="evenodd" d="M234.288 80.433L234.441 80.826L234.041 80.974C233.508 80.8068 232.941 80.7789 232.394 80.893C231.454 81.1277 230.548 81.4826 229.699 81.949C228.35 82.7295 227.214 83.8296 226.39 85.1524C225.567 86.4753 225.081 87.9803 224.976 89.535L224.718 89.874C224.318 89.574 224.388 89.66 224.338 89.441C223.055 83.5 230.325 78.055 234.288 80.433Z" fill="#212121"/>
<path fill-rule="evenodd" clip-rule="evenodd" d="M220.786 76.911C220.649 76.1609 220.607 75.3966 220.661 74.636C220.686 74.2594 220.802 73.8945 221 73.573C221.85 72.158 224.238 71.162 225.827 70.779C225.997 70.7071 226.18 70.6697 226.364 70.6691C226.549 70.6685 226.732 70.7047 226.903 70.7755C227.073 70.8464 227.228 70.9505 227.358 71.0817C227.488 71.213 227.59 71.3688 227.659 71.54C227.828 71.3517 228.009 71.174 228.2 71.008C228.762 70.4733 229.456 70.0981 230.211 69.921C231.328 69.5473 232.487 69.3142 233.662 69.227C233.862 69.222 233.748 69.172 234.113 69.508C233.777 69.87 233.89 69.808 233.696 69.826C232.2 70.0103 230.746 70.4472 229.396 71.118C228.876 71.4912 228.427 71.9557 228.073 72.489C228.249 72.944 228.351 73.065 228.71 74.114C229.1 75.284 229.299 76.073 229.697 77.161C230.482 79.253 230.922 79.73 230.722 80.29C230.67 80.4152 230.578 80.52 230.461 80.5887C230.344 80.6574 230.208 80.6863 230.073 80.671V80.671C229.554 80.671 229.467 80.053 228.815 78.456C228.42 77.6588 228.082 76.8351 227.801 75.991C227.575 75.0822 227.27 74.1951 226.888 73.34C226.735 72.9302 226.553 72.5319 226.344 72.148C225.257 72.3998 224.218 72.8252 223.266 73.408C222.071 74.191 222.121 74.566 222.121 75.266C222.106 75.8185 222.177 76.37 222.33 76.901C222.962 77.756 224.317 78.231 225.453 78.93C225.943 79.236 225.648 79.082 226.26 79.458C227.06 79.945 228.782 80.916 228.493 81.802C228.459 81.9156 228.398 82.0193 228.316 82.1048C228.234 82.1903 228.132 82.255 228.02 82.2935C227.908 82.3321 227.788 82.3435 227.671 82.3267C227.554 82.3099 227.442 82.2655 227.345 82.197C227.214 82.0812 227.077 81.9727 226.934 81.872C226.42 81.6126 225.937 81.2945 225.496 80.924C225.076 80.6218 224.623 80.3684 224.146 80.169C222.672 79.383 220.034 77.53 218.778 78.399C218.017 79.0096 217.455 79.8319 217.161 80.762C216.786 83.009 221.696 84.133 223.94 84.579C224.785 84.739 224.693 84.703 224.84 84.787C224.917 84.8358 224.981 84.9039 225.024 84.9845C225.067 85.0651 225.088 85.1556 225.086 85.247C225.084 85.3804 225.033 85.5084 224.942 85.6062C224.852 85.7041 224.728 85.7649 224.595 85.777C222.851 85.5162 221.082 85.4632 219.326 85.619C218.143 85.731 217.195 85.919 217.037 87.092C216.995 87.6071 217.039 88.1255 217.168 88.626C217.324 89.186 217.374 88.821 217.184 89.419L216.779 89.29C216.379 88.4565 216.249 87.5191 216.406 86.608C216.768 85.172 218.159 84.88 219.635 84.716C215.335 83.245 214.813 80.758 217.116 78.065C217.509 77.4887 218.085 77.0615 218.751 76.8522C219.417 76.6429 220.134 76.6636 220.786 76.911V76.911ZM229.54 80.063V80.08V80.061V80.063ZM229.54 80.076V80.065V80.076Z" fill="#212121"/>
<path fill-rule="evenodd" clip-rule="evenodd" d="M188.468 25.118C192.796 31.4275 196.73 37.9984 200.248 44.793L200.131 45.199L199.731 45.077C198.431 42.901 188.421 27.551 187.454 26.236C186.211 26.8303 185.063 27.6054 184.047 28.536C184.573 30.607 191.199 42.487 192.693 44.946C192.912 45.307 192.878 45.159 192.779 45.646C192.297 45.546 192.418 45.64 192.17 45.291C189.378 41.339 184.828 34.152 183.052 30.015C182.758 29.4854 182.597 28.8926 182.581 28.287V28.287C182.726 27.546 183.627 26.875 184.291 26.402C185.194 25.7667 186.151 25.2116 187.15 24.743C187.26 24.6775 187.383 24.6352 187.51 24.6186C187.637 24.602 187.766 24.6116 187.89 24.6467C188.013 24.6818 188.128 24.7417 188.228 24.8228C188.327 24.9038 188.409 25.0043 188.468 25.118V25.118Z" fill="#212121"/>
<path fill-rule="evenodd" clip-rule="evenodd" d="M174.728 67.594C175.684 67.594 181.575 67.716 182.436 68.147C182.676 68.2918 182.878 68.4922 183.024 68.7314C183.17 68.9705 183.257 69.2413 183.277 69.521C183.346 69.928 183.482 70.9789 183.517 71.7279C183.524 73.7999 183.283 75.8652 182.8 77.8799C182.627 78.6312 182.308 79.3409 181.86 79.968L181.447 80.0449C181.317 79.3199 181.347 79.94 181.734 78.845C182.317 76.1725 182.415 73.4171 182.024 70.71C181.981 70.2869 181.897 69.8689 181.774 69.4619C180.589 69.3002 179.396 69.2041 178.2 69.174C175.384 69.084 173.224 68.919 171.462 69.486C170.887 69.677 170.943 69.863 170.862 70.87C170.782 72.255 170.797 73.6439 170.906 75.027C170.952 76.348 170.906 78.3269 171.691 79.3679L171.656 79.791L171.233 79.7559C170.052 78.5219 169.921 75.7989 169.641 73.5469C169.491 72.4472 169.454 71.3351 169.531 70.2279C169.656 68.4689 170.531 68.2189 172.141 67.8389C172.991 67.6593 173.859 67.5771 174.728 67.594ZM181.756 69.426L181.749 69.419L181.756 69.426ZM181.756 69.426L181.743 69.41L181.756 69.426ZM181.756 69.426L181.746 69.416L181.756 69.426ZM181.756 69.426L181.746 69.415L181.756 69.426Z" fill="#212121"/>
<path d="M174.553 68.8611C174.372 68.861 174.198 68.7952 174.061 68.676C173.925 68.5569 173.837 68.3924 173.813 68.213C173.447 65.479 173.399 62.7461 173.161 60.037C173.152 59.9393 173.163 59.8408 173.193 59.7471C173.222 59.6535 173.27 59.5665 173.333 59.4913C173.396 59.416 173.473 59.3539 173.56 59.3085C173.647 59.2631 173.742 59.2352 173.84 59.2266C173.937 59.2179 174.036 59.2286 174.13 59.258C174.223 59.2874 174.31 59.3349 174.385 59.3979C174.461 59.4609 174.523 59.5382 174.568 59.6252C174.614 59.7122 174.641 59.8073 174.65 59.905C174.886 62.5881 174.938 65.3511 175.294 68.0141C175.308 68.1197 175.3 68.2271 175.269 68.3291C175.238 68.4311 175.186 68.5254 175.116 68.6056C175.046 68.6858 174.959 68.75 174.862 68.7941C174.765 68.8382 174.66 68.861 174.553 68.8611Z" fill="#212121"/>
<path d="M178.094 68.851C177.915 68.8506 177.743 68.7863 177.607 68.6696C177.472 68.5529 177.383 68.3917 177.356 68.215C177.225 66.4071 177.231 64.5918 177.376 62.785C177.376 62.5868 177.455 62.3968 177.595 62.2568C177.735 62.1167 177.925 62.038 178.123 62.038C178.321 62.038 178.511 62.1167 178.651 62.2568C178.791 62.3968 178.87 62.5868 178.87 62.785C178.736 64.5176 178.724 66.2576 178.834 67.992C178.85 68.0984 178.843 68.207 178.813 68.3105C178.783 68.4139 178.731 68.5096 178.661 68.5912C178.591 68.6727 178.504 68.7381 178.406 68.783C178.308 68.8278 178.202 68.851 178.094 68.851Z" fill="#212121"/>
<path fill-rule="evenodd" clip-rule="evenodd" d="M19.2939 255.086C17.9939 260.212 13.3989 289.024 14.1289 293.171C14.1891 293.428 14.3206 293.662 14.5083 293.847C14.6959 294.033 14.932 294.161 15.1895 294.218C15.447 294.275 15.7153 294.258 15.9636 294.169C16.2119 294.08 16.43 293.923 16.5929 293.716C17.7719 292.371 26.1629 259.274 26.6169 256.087" fill="white"/>
<path fill-rule="evenodd" clip-rule="evenodd" d="M19.5849 255.161C18.6019 259.491 16.3519 276.318 15.8029 280.741C15.6949 281.608 14.2629 292.874 14.9939 293.332L15.0069 293.347H15.0129L15.0259 293.362L15.0399 293.37L15.0469 293.377H15.0539L15.0609 293.384H15.0689L15.0759 293.392L15.0919 293.399L15.0999 293.407L15.1429 293.425L15.1519 293.433L15.1899 293.448H15.1999L15.2419 293.463H15.2519L15.2739 293.47H15.2849H15.2959H15.3079H15.3189H15.3309H15.3419H15.3779H15.3899H15.4519H15.4649H15.4999H15.5129H15.5379L15.5639 293.462H15.5769L15.6019 293.455H15.6149L15.7149 293.425L15.7269 293.417L15.7519 293.41L15.7639 293.402H15.7759L15.7869 293.394H15.7989L15.8099 293.387H15.8219L15.8549 293.365H15.8659C15.9055 293.34 15.943 293.311 15.9779 293.279L15.9869 293.268L15.9969 293.26L16.0059 293.249L16.0149 293.242C17.3309 290.609 25.9258 258.16 26.3088 256.117C26.3278 256.017 26.2699 256.082 26.6589 255.788C26.9479 256.18 26.9128 256.101 26.8988 256.211C26.4048 259.911 20.2458 286.132 17.7738 292.876C17.636 293.549 17.2643 294.151 16.7248 294.576C16.4105 294.792 16.047 294.925 15.6676 294.964C15.2882 295.003 14.9052 294.945 14.5539 294.797C13.2929 294.237 13.2899 292.953 13.3119 291.569C13.3669 288.577 13.9989 283.523 14.3979 280.551C15.2499 274.238 17.5549 260.43 18.9619 255.151C19.0089 254.96 18.9369 255.044 19.3619 254.785L19.5849 255.161Z" fill="#212121"/>
<path fill-rule="evenodd" clip-rule="evenodd" d="M76.2001 254.31C77.5001 259.435 82.2681 289.017 81.5381 293.164C81.4778 293.421 81.3463 293.655 81.1587 293.841C80.971 294.026 80.7349 294.154 80.4774 294.211C80.2199 294.268 79.9516 294.251 79.7033 294.162C79.4551 294.074 79.2369 293.916 79.0741 293.709C77.8951 292.364 69.3681 259.209 68.9141 256.021" fill="white"/>
<path fill-rule="evenodd" clip-rule="evenodd" d="M76.4879 254.239C78.1659 260.255 82.6389 286.266 82.3369 292.603C82.3638 292.974 82.3016 293.347 82.1555 293.689C82.0093 294.032 81.7836 294.334 81.4969 294.572C81.0531 294.885 80.5108 295.025 79.9709 294.968C79.4311 294.91 78.9307 294.658 78.5629 294.259C76.9479 292.414 69.7289 262.74 68.6759 256.459C68.5939 255.967 68.5759 256.124 68.8669 255.724C69.2839 256.038 69.1769 255.872 69.2769 256.347C69.7679 258.623 78.5259 291.368 79.6479 293.237C82.7479 295.827 76.7759 258.266 75.9379 254.528C75.8979 254.343 75.8599 254.458 76.1239 254.016L76.4879 254.239Z" fill="#212121"/>
<path fill-rule="evenodd" clip-rule="evenodd" d="M90.0209 150.068C91.5469 150.068 91.8069 150.533 93.0429 152.468C95.4849 156.391 101.693 167.319 102.635 171.787C102.755 172.129 102.787 172.496 102.727 172.854C102.668 173.212 102.519 173.549 102.295 173.834C98.5559 179.1 68.4039 206.261 44.5609 211.534C38.4279 213.012 32.7279 212.834 29.4479 211.934C14.2659 208.465 15.5189 190.879 20.9169 176.076C22.0493 173.066 23.3558 170.125 24.8299 167.267C26.1719 164.506 29.4219 157.816 32.1599 156.421L32.5659 156.548L32.4399 156.948C29.8519 158.403 26.8809 164.762 25.5399 167.603C23.17 172.314 21.3021 177.262 19.9669 182.364C16.7169 195.222 17.5019 208.279 30.5369 210.776C51.2739 214.699 82.1079 191.623 97.3039 177.04C98.7279 175.709 100.045 174.267 101.242 172.729V172.729C101.85 170.695 92.5699 153.713 90.7079 151.56C90.5529 151.56 90.3509 151.221 87.9999 151.717C87.8509 151.749 83.4059 152.839 80.8359 153.517C70.3299 156.295 60.8639 159.886 52.4459 165.558L52.4379 165.566C44.0599 171.311 41.8319 175.156 36.5379 183.966L36.1309 184.075L36.0309 183.667C41.2609 174.632 43.6309 170.506 52.3229 164.479C62.6449 157.323 75.2969 153.373 87.5129 150.417C88.3322 150.202 89.1741 150.085 90.0209 150.068V150.068Z" fill="#212121"/>
<path fill-rule="evenodd" clip-rule="evenodd" d="M93.7432 154.82C94.4342 154.244 94.8992 153.426 95.5532 152.806C96.9932 151.439 98.4662 150.064 99.9852 148.786C100.555 148.308 101.71 147.101 102.572 147.426C104.34 148.097 102.089 151.355 100.899 152.817C100.854 152.873 100.699 152.993 100.769 152.982C101.005 152.955 101.369 152.559 101.569 152.429C104.801 150.262 110.596 148.129 112.343 147.975C112.685 147.909 113.039 147.973 113.335 148.155C113.813 148.543 113.354 149.548 113.058 149.899C111.771 151.179 110.313 152.276 108.726 153.157C108.054 153.583 107.361 153.973 106.648 154.327C106.548 154.379 106.276 154.562 106.348 154.483C106.644 154.259 106.972 154.081 107.32 153.953C108.915 153.179 110.659 152.759 112.431 152.72C113.466 152.675 114.831 152.799 114.158 154.155C113.386 155.698 111.381 156.549 109.944 157.308C109.538 157.521 108.475 158.09 107.81 158.346C107.71 158.384 107.487 158.559 107.524 158.462C107.689 158.028 110.039 157.697 110.502 157.633C111.12 157.547 113.139 157.125 113.348 158.156C113.563 159.224 111.973 160.211 111.259 160.693C111.045 160.838 110.832 160.984 110.607 161.111C107.321 162.994 104.327 165.673 100.68 166.861" fill="white"/>
<path fill-rule="evenodd" clip-rule="evenodd" d="M112.754 147.236C114.235 147.355 114.605 148.491 113.979 149.795C113.661 150.37 113.233 150.877 112.718 151.285C111.825 152.066 111.679 152.028 111.888 152.01C112.757 151.866 113.65 151.987 114.45 152.358C114.631 152.474 114.783 152.631 114.891 152.817C115 153.002 115.062 153.211 115.074 153.426C115.131 154.685 113.795 155.952 112.697 156.635C112.226 156.949 112.23 156.804 112.697 156.908C112.928 156.933 113.15 157.014 113.343 157.142C113.537 157.271 113.697 157.444 113.81 157.647C113.924 157.85 113.987 158.077 113.994 158.309C114.002 158.541 113.954 158.772 113.854 158.982C113.575 159.573 113.143 160.078 112.603 160.446C112.076 160.834 111.21 161.391 110.924 161.552C106.324 164.211 104.731 165.799 100.924 167.1C100.741 167.162 100.83 167.169 100.405 166.954C100.626 166.522 100.551 166.598 100.731 166.532C103.88 165.407 106.616 163.01 109.579 161.122C110.405 160.598 112.904 159.156 112.758 158.287L112.748 158.253L112.754 158.272L112.745 158.249L112.751 158.268C112.749 158.259 112.745 158.25 112.741 158.242L112.75 158.261C112.745 158.255 112.741 158.249 112.738 158.242L112.748 158.261L112.735 158.238L112.746 158.257C112.739 158.246 112.746 158.249 112.721 158.231L112.735 158.242L112.725 158.234L112.706 158.219H112.699C112.161 157.935 109.986 158.398 109.317 158.51C108.988 158.583 108.672 158.707 108.381 158.876C107.763 159.128 107.913 159.147 107.598 159.186C106.838 159.219 106.426 158.214 107.468 157.636C107.701 157.527 107.946 157.443 108.197 157.386C108.558 157.292 111.474 155.694 111.579 155.633C112.09 155.34 112.562 154.984 112.984 154.572C113.267 154.291 113.482 153.949 113.613 153.572H113.607H113.6H113.592H113.584C112.77 153.246 109.86 153.693 108.584 154.229C107.1 154.773 106.636 155.534 105.937 155.134C105.825 155.059 105.736 154.955 105.679 154.833C105.623 154.712 105.6 154.577 105.615 154.443C105.701 153.935 106.133 153.718 106.597 153.49C107.404 153.133 108.175 152.698 108.897 152.19C109.914 151.54 112.707 149.898 112.823 148.719C110.755 148.719 103.408 151.772 101.912 153.019C101.471 153.411 100.98 153.819 100.451 153.561C100.323 153.49 100.224 153.377 100.173 153.24V153.24L100.143 153.146C100.116 153.028 100.121 152.905 100.158 152.789C100.195 152.674 100.262 152.57 100.352 152.489C101.022 151.83 103.213 148.782 102.56 148.054C102.514 148.009 102.458 147.975 102.398 147.954C101.848 147.954 100.488 148.785 95.7588 153.139C95.1808 153.672 94.6208 154.557 93.9528 155.071L93.5298 155.037L93.5658 154.611C94.8258 153.522 93.2978 154.175 99.9138 148.234C100.487 147.595 101.226 147.127 102.048 146.881C102.324 146.832 102.609 146.867 102.866 146.981C103.766 147.381 103.913 148.236 103.701 149.197C103.101 151.555 101.834 150.973 106.953 148.95C108.383 148.362 109.847 147.855 111.335 147.433C111.799 147.313 112.275 147.247 112.754 147.236V147.236ZM108.102 158.982H108.097H108.106H108.102ZM108.056 158.882L108.048 158.889L108.057 158.882H108.056ZM108.056 158.882L108.046 158.889L108.059 158.882H108.056ZM108.056 158.882H108.062H108.056ZM112.729 158.254L112.719 158.243L112.729 158.254ZM112.729 158.254L112.717 158.239L112.729 158.254ZM112.729 158.254L112.717 158.242L112.729 158.254ZM101.244 153.386L101.237 153.393L101.248 153.378L101.244 153.386ZM100.405 152.414V152.407V152.414Z" fill="#212121"/>
<path fill-rule="evenodd" clip-rule="evenodd" d="M54.4468 217.416L54.9468 217.678C55.2348 218.57 55.1718 217.551 54.4708 223.607C54.3898 224.292 54.4808 224.088 54.1098 224.485C53.7458 224.095 53.8238 224.285 53.7548 223.599C53.6078 222.066 53.5808 221.324 53.5718 220.379C53.5718 219.537 53.6228 218.196 53.6328 218.096L53.8948 217.596L54.4358 217.42L54.4468 217.416Z" fill="#212121"/>
<path fill-rule="evenodd" clip-rule="evenodd" d="M32.8689 224.967L33.3459 225.277C33.5969 226.405 33.4129 225.204 33.1599 227.929C32.7229 233.029 33.0179 232.255 32.5199 232.79L32.2199 232.476C32.0789 231.043 31.5749 227.67 31.9959 225.564L32.3049 225.09L32.8589 224.967H32.8689Z" fill="#212121"/>
<path fill-rule="evenodd" clip-rule="evenodd" d="M48.7118 237.03L49.2118 237.299L49.3778 237.845C49.0778 240.814 49.2068 242.03 48.8508 244.203C48.7808 244.609 48.8508 244.47 48.4738 244.803C48.0858 244.324 48.2548 244.755 48.1548 243.335C47.9252 241.465 47.8369 239.58 47.8908 237.697L48.1618 237.197L48.7048 237.032L48.7118 237.03Z" fill="#212121"/>
</svg>
